<svg xmlns="http://www.w3.org/2000/svg" xmlns:xlink="http://www.w3.org/1999/xlink" contentStyleType="text/css" data-diagram-type="CLASS" height="601px" preserveAspectRatio="none" style="width:1750px;height:601px;background:#FFFFFF;" version="1.1" viewBox="0 0 1750 601" width="1750px" zoomAndPan="magnify"><defs/><g><!--cluster Team Aggregate--><g class="cluster" data-entity="Team Aggregate" data-source-line="2" data-uid="ent0002" id="cluster_Team Aggregate"><path d="M8.5,6 L140.3877,6 A3.75,3.75 0 0 1 142.8877,8.5 L149.8877,28.2969 L870.5,28.2969 A2.5,2.5 0 0 1 873,30.7969 L873,358.5 A2.5,2.5 0 0 1 870.5,361 L8.5,361 A2.5,2.5 0 0 1 6,358.5 L6,8.5 A2.5,2.5 0 0 1 8.5,6" fill="none" style="stroke:#000000;stroke-width:1.5;"/><line style="stroke:#000000;stroke-width:1.5;" x1="6" x2="149.8877" y1="28.2969" y2="28.2969"/><text fill="#000000" font-family="sans-serif" font-size="14" font-weight="bold" lengthAdjust="spacing" textLength="130.8877" x="10" y="20.9951">Team Aggregate</text><text fill="#000000" font-family="sans-serif" font-size="14" font-style="italic" lengthAdjust="spacing" textLength="90.5693" x="398.2153" y="43.292">&#171;Aggregate&#187;</text></g><!--cluster User Aggregate--><g class="cluster" data-entity="User Aggregate" data-source-line="5" data-uid="ent0019" id="cluster_User Aggregate"><path d="M514.5,422 L639.4082,422 A3.75,3.75 0 0 1 641.9082,424.5 L648.9082,444.2969 L1220.5,444.2969 A2.5,2.5 0 0 1 1223,446.7969 L1223,591.5 A2.5,2.5 0 0 1 1220.5,594 L514.5,594 A2.5,2.5 0 0 1 512,591.5 L512,424.5 A2.5,2.5 0 0 1 514.5,422" fill="none" style="stroke:#000000;stroke-width:1.5;"/><line style="stroke:#000000;stroke-width:1.5;" x1="512" x2="648.9082" y1="444.2969" y2="444.2969"/><text fill="#000000" font-family="sans-serif" font-size="14" font-weight="bold" lengthAdjust="spacing" textLength="123.9082" x="516" y="436.9951">User Aggregate</text><text fill="#000000" font-family="sans-serif" font-size="14" font-style="italic" lengthAdjust="spacing" textLength="90.5693" x="826.2153" y="459.292">&#171;Aggregate&#187;</text></g><!--cluster Issue Aggregate--><g class="cluster" data-entity="Issue Aggregate" data-source-line="8" data-uid="ent0029" id="cluster_Issue Aggregate"><path d="M967.5,201 L1097.6445,201 A3.75,3.75 0 0 1 1100.1445,203.5 L1107.1445,223.2969 L1740.5,223.2969 A2.5,2.5 0 0 1 1743,225.7969 L1743,370.5 A2.5,2.5 0 0 1 1740.5,373 L967.5,373 A2.5,2.5 0 0 1 965,370.5 L965,203.5 A2.5,2.5 0 0 1 967.5,201" fill="none" style="stroke:#000000;stroke-width:1.5;"/><line style="stroke:#000000;stroke-width:1.5;" x1="965" x2="1107.1445" y1="223.2969" y2="223.2969"/><text fill="#000000" font-family="sans-serif" font-size="14" font-weight="bold" lengthAdjust="spacing" textLength="129.1445" x="969" y="215.9951">Issue Aggregate</text><text fill="#000000" font-family="sans-serif" font-size="14" font-style="italic" lengthAdjust="spacing" textLength="90.5693" x="1312.7153" y="238.292">&#171;Aggregate&#187;</text></g><!--class Team--><g class="entity" data-entity="Team" data-source-line="2" data-uid="ent0003" id="entity_Team"><rect fill="#F1F1F1" height="80.5938" rx="2.5" ry="2.5" style="stroke:#181818;stroke-width:0.5;" width="168.9053" x="560.5" y="57"/><ellipse cx="621.0117" cy="73" fill="#ADD1B2" rx="11" ry="11" style="stroke:#181818;stroke-width:1;"/><path d="M623.9805,78.6406 Q623.4023,78.9375 622.7617,79.0781 Q622.1211,79.2344 621.418,79.2344 Q618.918,79.2344 617.5898,77.5938 Q616.2773,75.9375 616.2773,72.8125 Q616.2773,69.6875 617.5898,68.0313 Q618.918,66.375 621.418,66.375 Q622.1211,66.375 622.7617,66.5313 Q623.418,66.6875 623.9805,66.9844 L623.9805,69.7031 Q623.3555,69.125 622.7617,68.8594 Q622.168,68.5781 621.543,68.5781 Q620.1992,68.5781 619.5117,69.6563 Q618.8242,70.7188 618.8242,72.8125 Q618.8242,74.9063 619.5117,75.9844 Q620.1992,77.0469 621.543,77.0469 Q622.168,77.0469 622.7617,76.7813 Q623.3555,76.5 623.9805,75.9219 L623.9805,78.6406 Z " fill="#000000"/><text fill="#000000" font-family="sans-serif" font-size="14" lengthAdjust="spacing" textLength="39.3818" x="641.5117" y="77.8467">Team</text><line style="stroke:#181818;stroke-width:0.5;" x1="561.5" x2="728.4053" y1="89" y2="89"/><ellipse cx="571.5" cy="102.6484" fill="none" rx="3" ry="3" style="stroke:#038048;stroke-width:1;"/><text fill="#000000" font-family="sans-serif" font-size="14" lengthAdjust="spacing" textLength="98.3555" x="580.5" y="105.9951">teamId : UUID</text><ellipse cx="571.5" cy="118.9453" fill="none" rx="3" ry="3" style="stroke:#038048;stroke-width:1;"/><text fill="#000000" font-family="sans-serif" font-size="14" lengthAdjust="spacing" textLength="142.9053" x="580.5" y="122.292">name   : TeamName</text><line style="stroke:#181818;stroke-width:0.5;" x1="561.5" x2="728.4053" y1="129.5938" y2="129.5938"/></g><g class="entity" data-entity="GMN4" data-source-line="7" data-uid="ent0005" id="entity_GMN4"><path d="M765,85 L765,93.5 L729.62,97.5 L765,101.5 L765,110.1328 A0,0 0 0 0 765,110.1328 L856.6812,110.1328 A0,0 0 0 0 856.6812,110.1328 L856.6812,95 L846.6812,85 L765,85 A0,0 0 0 0 765,85" fill="#FEFFDD" style="stroke:#181818;stroke-width:0.5;"/><path d="M846.6812,85 L846.6812,95 L856.6812,95 L846.6812,85" fill="#FEFFDD" style="stroke:#181818;stroke-width:0.5;"/><text fill="#000000" font-family="sans-serif" font-size="13" lengthAdjust="spacing" textLength="70.6812" x="771" y="102.0669">&#12513;&#12531;&#12496;&#12540;&#12399;&#26368;&#20302;3&#21517;</text></g><!--class Pair--><g class="entity" data-entity="Pair" data-source-line="10" data-uid="ent0007" id="entity_Pair"><rect fill="#F1F1F1" height="80.5938" rx="2.5" ry="2.5" style="stroke:#181818;stroke-width:0.5;" width="142.3613" x="505" y="264"/><ellipse cx="558.5972" cy="280" fill="#ADD1B2" rx="11" ry="11" style="stroke:#181818;stroke-width:1;"/><path d="M561.5659,285.6406 Q560.9878,285.9375 560.3472,286.0781 Q559.7065,286.2344 559.0034,286.2344 Q556.5034,286.2344 555.1753,284.5938 Q553.8628,282.9375 553.8628,279.8125 Q553.8628,276.6875 555.1753,275.0313 Q556.5034,273.375 559.0034,273.375 Q559.7065,273.375 560.3472,273.5313 Q561.0034,273.6875 561.5659,273.9844 L561.5659,276.7031 Q560.9409,276.125 560.3472,275.8594 Q559.7534,275.5781 559.1284,275.5781 Q557.7847,275.5781 557.0972,276.6563 Q556.4097,277.7188 556.4097,279.8125 Q556.4097,281.9063 557.0972,282.9844 Q557.7847,284.0469 559.1284,284.0469 Q559.7534,284.0469 560.3472,283.7813 Q560.9409,283.5 561.5659,282.9219 L561.5659,285.6406 Z " fill="#000000"/><text fill="#000000" font-family="sans-serif" font-size="14" lengthAdjust="spacing" textLength="26.667" x="579.0972" y="284.8467">Pair</text><line style="stroke:#181818;stroke-width:0.5;" x1="506" x2="646.3613" y1="296" y2="296"/><ellipse cx="516" cy="309.6484" fill="none" rx="3" ry="3" style="stroke:#038048;stroke-width:1;"/><text fill="#000000" font-family="sans-serif" font-size="14" lengthAdjust="spacing" textLength="89.1475" x="525" y="312.9951">pairId : UUID</text><ellipse cx="516" cy="325.9453" fill="none" rx="3" ry="3" style="stroke:#038048;stroke-width:1;"/><text fill="#000000" font-family="sans-serif" font-size="14" lengthAdjust="spacing" textLength="116.3613" x="525" y="329.292">label  : PairLabel</text><line style="stroke:#181818;stroke-width:0.5;" x1="506" x2="646.3613" y1="336.5938" y2="336.5938"/></g><g class="entity" data-entity="GMN8" data-source-line="15" data-uid="ent0009" id="entity_GMN8"><path d="M682,292 L682,300.5 L647.12,304.5 L682,308.5 L682,317.1328 A0,0 0 0 0 682,317.1328 L788.3379,317.1328 A0,0 0 0 0 788.3379,317.1328 L788.3379,302 L778.3379,292 L682,292 A0,0 0 0 0 682,292" fill="#FEFFDD" style="stroke:#181818;stroke-width:0.5;"/><path d="M778.3379,292 L778.3379,302 L788.3379,302 L778.3379,292" fill="#FEFFDD" style="stroke:#181818;stroke-width:0.5;"/><text fill="#000000" font-family="sans-serif" font-size="13" lengthAdjust="spacing" textLength="85.3379" x="688" y="309.0669">&#21516;Team&#20869; 2-3&#21517;</text></g><!--class TeamName--><g class="entity" data-entity="TeamName" data-source-line="19" data-uid="ent0011" id="entity_TeamName"><rect fill="#F1F1F1" height="56.2656" rx="2.5" ry="2.5" style="stroke:#181818;stroke-width:0.5;" width="115.7793" x="290" y="69.5"/><ellipse cx="305" cy="89.6328" fill="#ADD1B2" rx="11" ry="11" style="stroke:#181818;stroke-width:1;"/><path d="M307.9688,95.2734 Q307.3906,95.5703 306.75,95.7109 Q306.1094,95.8672 305.4063,95.8672 Q302.9063,95.8672 301.5781,94.2266 Q300.2656,92.5703 300.2656,89.4453 Q300.2656,86.3203 301.5781,84.6641 Q302.9063,83.0078 305.4063,83.0078 Q306.1094,83.0078 306.75,83.1641 Q307.4063,83.3203 307.9688,83.6172 L307.9688,86.3359 Q307.3438,85.7578 306.75,85.4922 Q306.1563,85.2109 305.5313,85.2109 Q304.1875,85.2109 303.5,86.2891 Q302.8125,87.3516 302.8125,89.4453 Q302.8125,91.5391 303.5,92.6172 Q304.1875,93.6797 305.5313,93.6797 Q306.1563,93.6797 306.75,93.4141 Q307.3438,93.1328 307.9688,92.5547 L307.9688,95.2734 Z " fill="#000000"/><text fill="#000000" font-family="sans-serif" font-size="12" font-style="italic" lengthAdjust="spacing" textLength="87.7793" x="317" y="85.6387">&#171;ValueObject&#187;</text><text fill="#000000" font-family="sans-serif" font-size="14" lengthAdjust="spacing" textLength="80.6846" x="320.5474" y="101.4639">TeamName</text><line style="stroke:#181818;stroke-width:0.5;" x1="291" x2="404.7793" y1="109.7656" y2="109.7656"/><line style="stroke:#181818;stroke-width:0.5;" x1="291" x2="404.7793" y1="117.7656" y2="117.7656"/></g><g class="entity" data-entity="GMN12" data-source-line="21" data-uid="ent0013" id="entity_GMN12"><path d="M441,85 L441,93.5 L406.01,97.5 L441,101.5 L441,110.1328 A0,0 0 0 0 441,110.1328 L524.8799,110.1328 A0,0 0 0 0 524.8799,110.1328 L524.8799,95 L514.8799,85 L441,85 A0,0 0 0 0 441,85" fill="#FEFFDD" style="stroke:#181818;stroke-width:0.5;"/><path d="M514.8799,85 L514.8799,95 L524.8799,95 L514.8799,85" fill="#FEFFDD" style="stroke:#181818;stroke-width:0.5;"/><text fill="#000000" font-family="sans-serif" font-size="13" lengthAdjust="spacing" textLength="62.8799" x="447" y="102.0669">&#19968;&#24847;&#12539;3&#25991;&#23383;&#20197;&#20869;</text></g><!--class PairLabel--><g class="entity" data-entity="PairLabel" data-source-line="24" data-uid="ent0015" id="entity_PairLabel"><rect fill="#F1F1F1" height="56.2656" rx="2.5" ry="2.5" style="stroke:#181818;stroke-width:0.5;" width="115.7793" x="22" y="69.5"/><ellipse cx="37" cy="89.6328" fill="#ADD1B2" rx="11" ry="11" style="stroke:#181818;stroke-width:1;"/><path d="M39.9688,95.2734 Q39.3906,95.5703 38.75,95.7109 Q38.1094,95.8672 37.4063,95.8672 Q34.9063,95.8672 33.5781,94.2266 Q32.2656,92.5703 32.2656,89.4453 Q32.2656,86.3203 33.5781,84.6641 Q34.9063,83.0078 37.4063,83.0078 Q38.1094,83.0078 38.75,83.1641 Q39.4063,83.3203 39.9688,83.6172 L39.9688,86.3359 Q39.3438,85.7578 38.75,85.4922 Q38.1563,85.2109 37.5313,85.2109 Q36.1875,85.2109 35.5,86.2891 Q34.8125,87.3516 34.8125,89.4453 Q34.8125,91.5391 35.5,92.6172 Q36.1875,93.6797 37.5313,93.6797 Q38.1563,93.6797 38.75,93.4141 Q39.3438,93.1328 39.9688,92.5547 L39.9688,95.2734 Z " fill="#000000"/><text fill="#000000" font-family="sans-serif" font-size="12" font-style="italic" lengthAdjust="spacing" textLength="87.7793" x="49" y="85.6387">&#171;ValueObject&#187;</text><text fill="#000000" font-family="sans-serif" font-size="14" lengthAdjust="spacing" textLength="64.4355" x="60.6719" y="101.4639">PairLabel</text><line style="stroke:#181818;stroke-width:0.5;" x1="23" x2="136.7793" y1="109.7656" y2="109.7656"/><line style="stroke:#181818;stroke-width:0.5;" x1="23" x2="136.7793" y1="117.7656" y2="117.7656"/></g><g class="entity" data-entity="GMN16" data-source-line="26" data-uid="ent0017" id="entity_GMN16"><path d="M173,85 L173,93.5 L138.1,97.5 L173,101.5 L173,110.1328 A0,0 0 0 0 173,110.1328 L255.4072,110.1328 A0,0 0 0 0 255.4072,110.1328 L255.4072,95 L245.4072,85 L173,85 A0,0 0 0 0 173,85" fill="#FEFFDD" style="stroke:#181818;stroke-width:0.5;"/><path d="M245.4072,85 L245.4072,95 L255.4072,95 L245.4072,85" fill="#FEFFDD" style="stroke:#181818;stroke-width:0.5;"/><text fill="#000000" font-family="sans-serif" font-size="13" lengthAdjust="spacing" textLength="61.4072" x="179" y="102.0669">A&#12316;Z &#12398;1&#25991;&#23383;</text></g><!--class User--><g class="entity" data-entity="User" data-source-line="2" data-uid="ent0020" id="entity_User"><rect fill="#F1F1F1" height="96.8906" rx="2.5" ry="2.5" style="stroke:#181818;stroke-width:0.5;" width="159.1572" x="921.5" y="477"/><ellipse cx="980.8735" cy="493" fill="#ADD1B2" rx="11" ry="11" style="stroke:#181818;stroke-width:1;"/><path d="M983.8423,498.6406 Q983.2642,498.9375 982.6235,499.0781 Q981.9829,499.2344 981.2798,499.2344 Q978.7798,499.2344 977.4517,497.5938 Q976.1392,495.9375 976.1392,492.8125 Q976.1392,489.6875 977.4517,488.0313 Q978.7798,486.375 981.2798,486.375 Q981.9829,486.375 982.6235,486.5313 Q983.2798,486.6875 983.8423,486.9844 L983.8423,489.7031 Q983.2173,489.125 982.6235,488.8594 Q982.0298,488.5781 981.4048,488.5781 Q980.061,488.5781 979.3735,489.6563 Q978.686,490.7188 978.686,492.8125 Q978.686,494.9063 979.3735,495.9844 Q980.061,497.0469 981.4048,497.0469 Q982.0298,497.0469 982.6235,496.7813 Q983.2173,496.5 983.8423,495.9219 L983.8423,498.6406 Z " fill="#000000"/><text fill="#000000" font-family="sans-serif" font-size="14" lengthAdjust="spacing" textLength="31.9102" x="1001.3735" y="497.8467">User</text><line style="stroke:#181818;stroke-width:0.5;" x1="922.5" x2="1079.6572" y1="509" y2="509"/><ellipse cx="932.5" cy="522.6484" fill="none" rx="3" ry="3" style="stroke:#038048;stroke-width:1;"/><text fill="#000000" font-family="sans-serif" font-size="14" lengthAdjust="spacing" textLength="92.5723" x="941.5" y="525.9951">userId : UUID</text><ellipse cx="932.5" cy="538.9453" fill="none" rx="3" ry="3" style="stroke:#038048;stroke-width:1;"/><text fill="#000000" font-family="sans-serif" font-size="14" lengthAdjust="spacing" textLength="95.5186" x="941.5" y="542.292">email  : Email</text><ellipse cx="932.5" cy="555.2422" fill="none" rx="3" ry="3" style="stroke:#038048;stroke-width:1;"/><text fill="#000000" font-family="sans-serif" font-size="14" lengthAdjust="spacing" textLength="133.1572" x="941.5" y="558.5889">status : UserStatus</text><line style="stroke:#181818;stroke-width:0.5;" x1="922.5" x2="1079.6572" y1="565.8906" y2="565.8906"/></g><g class="entity" data-entity="GMN21" data-source-line="8" data-uid="ent0022" id="entity_GMN21"><path d="M1115.5,513 L1115.5,521.5 L1080.69,525.5 L1115.5,529.5 L1115.5,538.1328 A0,0 0 0 0 1115.5,538.1328 L1206.7114,538.1328 A0,0 0 0 0 1206.7114,538.1328 L1206.7114,523 L1196.7114,513 L1115.5,513 A0,0 0 0 0 1115.5,513" fill="#FEFFDD" style="stroke:#181818;stroke-width:0.5;"/><path d="M1196.7114,513 L1196.7114,523 L1206.7114,523 L1196.7114,513" fill="#FEFFDD" style="stroke:#181818;stroke-width:0.5;"/><text fill="#000000" font-family="sans-serif" font-size="13" lengthAdjust="spacing" textLength="70.2114" x="1121.5" y="530.0669">&#38750;&#22312;&#31821;&#20013;&#12399;&#25152;&#23646;&#31105;&#27490;</text></g><!--class Email--><g class="entity" data-entity="Email" data-source-line="12" data-uid="ent0024" id="entity_Email"><rect fill="#F1F1F1" height="56.2656" rx="2.5" ry="2.5" style="stroke:#181818;stroke-width:0.5;" width="115.7793" x="673" y="497.5"/><ellipse cx="688" cy="517.6328" fill="#ADD1B2" rx="11" ry="11" style="stroke:#181818;stroke-width:1;"/><path d="M690.9688,523.2734 Q690.3906,523.5703 689.75,523.7109 Q689.1094,523.8672 688.4063,523.8672 Q685.9063,523.8672 684.5781,522.2266 Q683.2656,520.5703 683.2656,517.4453 Q683.2656,514.3203 684.5781,512.6641 Q685.9063,511.0078 688.4063,511.0078 Q689.1094,511.0078 689.75,511.1641 Q690.4063,511.3203 690.9688,511.6172 L690.9688,514.3359 Q690.3438,513.7578 689.75,513.4922 Q689.1563,513.2109 688.5313,513.2109 Q687.1875,513.2109 686.5,514.2891 Q685.8125,515.3516 685.8125,517.4453 Q685.8125,519.5391 686.5,520.6172 Q687.1875,521.6797 688.5313,521.6797 Q689.1563,521.6797 689.75,521.4141 Q690.3438,521.1328 690.9688,520.5547 L690.9688,523.2734 Z " fill="#000000"/><text fill="#000000" font-family="sans-serif" font-size="12" font-style="italic" lengthAdjust="spacing" textLength="87.7793" x="700" y="513.6387">&#171;ValueObject&#187;</text><text fill="#000000" font-family="sans-serif" font-size="14" lengthAdjust="spacing" textLength="38.8418" x="724.4688" y="529.4639">Email</text><line style="stroke:#181818;stroke-width:0.5;" x1="674" x2="787.7793" y1="537.7656" y2="537.7656"/><line style="stroke:#181818;stroke-width:0.5;" x1="674" x2="787.7793" y1="545.7656" y2="545.7656"/></g><g class="entity" data-entity="GMN25" data-source-line="14" data-uid="ent0026" id="entity_GMN25"><path d="M824,513 L824,521.5 L789.12,525.5 L824,529.5 L824,538.1328 A0,0 0 0 0 824,538.1328 L886.1899,538.1328 A0,0 0 0 0 886.1899,538.1328 L886.1899,523 L876.1899,513 L824,513 A0,0 0 0 0 824,513" fill="#FEFFDD" style="stroke:#181818;stroke-width:0.5;"/><path d="M876.1899,513 L876.1899,523 L886.1899,523 L876.1899,513" fill="#FEFFDD" style="stroke:#181818;stroke-width:0.5;"/><text fill="#000000" font-family="sans-serif" font-size="13" lengthAdjust="spacing" textLength="41.1899" x="830" y="530.0669">RFC&#28310;&#25312;</text></g><!--class UserStatus--><g class="entity" data-entity="UserStatus" data-source-line="17" data-uid="ent0028" id="entity_UserStatus"><rect fill="#F1F1F1" height="105.1563" rx="2.5" ry="2.5" style="stroke:#181818;stroke-width:0.5;" width="108.5215" x="528.5" y="473"/><ellipse cx="543.5" cy="493.1328" fill="#EB937F" rx="11" ry="11" style="stroke:#181818;stroke-width:1;"/><path d="M547.6094,499.1328 L539.8906,499.1328 L539.8906,486.7422 L547.6094,486.7422 L547.6094,488.8984 L542.3438,488.8984 L542.3438,491.5703 L547.1094,491.5703 L547.1094,493.7266 L542.3438,493.7266 L542.3438,496.9766 L547.6094,496.9766 L547.6094,499.1328 Z " fill="#000000"/><text fill="#000000" font-family="sans-serif" font-size="12" font-style="italic" lengthAdjust="spacing" textLength="49.2949" x="571.1133" y="489.1387">&#171;Enum&#187;</text><text fill="#000000" font-family="sans-serif" font-size="14" lengthAdjust="spacing" textLength="76.5215" x="557.5" y="504.9639">UserStatus</text><line style="stroke:#181818;stroke-width:0.5;" x1="529.5" x2="636.0215" y1="513.2656" y2="513.2656"/><text fill="#000000" font-family="sans-serif" font-size="14" lengthAdjust="spacing" textLength="57.3193" x="534.5" y="530.2607">Enrolled</text><text fill="#000000" font-family="sans-serif" font-size="14" lengthAdjust="spacing" textLength="77.8135" x="534.5" y="546.5576">Suspended</text><text fill="#000000" font-family="sans-serif" font-size="14" lengthAdjust="spacing" textLength="75.6396" x="534.5" y="562.8545">Withdrawn</text><line style="stroke:#181818;stroke-width:0.5;" x1="529.5" x2="636.0215" y1="570.1563" y2="570.1563"/></g><!--class Issue--><g class="entity" data-entity="Issue" data-source-line="1" data-uid="ent0030" id="entity_Issue"><rect fill="#F1F1F1" height="96.8906" rx="2.5" ry="2.5" style="stroke:#181818;stroke-width:0.5;" width="167.9004" x="1402" y="256"/><ellipse cx="1463.5986" cy="272" fill="#ADD1B2" rx="11" ry="11" style="stroke:#181818;stroke-width:1;"/><path d="M1466.5674,277.6406 Q1465.9893,277.9375 1465.3486,278.0781 Q1464.708,278.2344 1464.0049,278.2344 Q1461.5049,278.2344 1460.1768,276.5938 Q1458.8643,274.9375 1458.8643,271.8125 Q1458.8643,268.6875 1460.1768,267.0313 Q1461.5049,265.375 1464.0049,265.375 Q1464.708,265.375 1465.3486,265.5313 Q1466.0049,265.6875 1466.5674,265.9844 L1466.5674,268.7031 Q1465.9424,268.125 1465.3486,267.8594 Q1464.7549,267.5781 1464.1299,267.5781 Q1462.7861,267.5781 1462.0986,268.6563 Q1461.4111,269.7188 1461.4111,271.8125 Q1461.4111,273.9063 1462.0986,274.9844 Q1462.7861,276.0469 1464.1299,276.0469 Q1464.7549,276.0469 1465.3486,275.7813 Q1465.9424,275.5 1466.5674,274.9219 L1466.5674,277.6406 Z " fill="#000000"/><text fill="#000000" font-family="sans-serif" font-size="14" lengthAdjust="spacing" textLength="36.2031" x="1484.0986" y="276.8467">Issue</text><line style="stroke:#181818;stroke-width:0.5;" x1="1403" x2="1568.9004" y1="288" y2="288"/><ellipse cx="1413" cy="301.6484" fill="none" rx="3" ry="3" style="stroke:#038048;stroke-width:1;"/><text fill="#000000" font-family="sans-serif" font-size="14" lengthAdjust="spacing" textLength="98" x="1422" y="304.9951">issueId : UUID</text><ellipse cx="1413" cy="317.9453" fill="none" rx="3" ry="3" style="stroke:#038048;stroke-width:1;"/><text fill="#000000" font-family="sans-serif" font-size="14" lengthAdjust="spacing" textLength="116.5254" x="1422" y="321.292">title   : IssueTitle</text><ellipse cx="1413" cy="334.2422" fill="none" rx="3" ry="3" style="stroke:#038048;stroke-width:1;"/><text fill="#000000" font-family="sans-serif" font-size="14" lengthAdjust="spacing" textLength="141.9004" x="1422" y="337.5889">status  : IssueStatus</text><line style="stroke:#181818;stroke-width:0.5;" x1="1403" x2="1568.9004" y1="344.8906" y2="344.8906"/></g><g class="entity" data-entity="GMN31" data-source-line="7" data-uid="ent0032" id="entity_GMN31"><path d="M1605,292 L1605,300.5 L1570.02,304.5 L1605,308.5 L1605,317.1328 A0,0 0 0 0 1605,317.1328 L1727.4165,317.1328 A0,0 0 0 0 1727.4165,317.1328 L1727.4165,302 L1717.4165,292 L1605,292 A0,0 0 0 0 1605,292" fill="#FEFFDD" style="stroke:#181818;stroke-width:0.5;"/><path d="M1717.4165,292 L1717.4165,302 L1727.4165,302 L1717.4165,292" fill="#FEFFDD" style="stroke:#181818;stroke-width:0.5;"/><text fill="#000000" font-family="sans-serif" font-size="13" lengthAdjust="spacing" textLength="101.4165" x="1611" y="309.0669">&#25285;&#24403;&#32773;&#12398;&#12415;&#12473;&#12486;&#12540;&#12479;&#12473;&#22793;&#26356;&#21487;</text></g><!--class IssueTitle--><g class="entity" data-entity="IssueTitle" data-source-line="11" data-uid="ent0034" id="entity_IssueTitle"><rect fill="#F1F1F1" height="56.2656" rx="2.5" ry="2.5" style="stroke:#181818;stroke-width:0.5;" width="115.7793" x="1130" y="276.5"/><ellipse cx="1145" cy="296.6328" fill="#ADD1B2" rx="11" ry="11" style="stroke:#181818;stroke-width:1;"/><path d="M1147.9688,302.2734 Q1147.3906,302.5703 1146.75,302.7109 Q1146.1094,302.8672 1145.4063,302.8672 Q1142.9063,302.8672 1141.5781,301.2266 Q1140.2656,299.5703 1140.2656,296.4453 Q1140.2656,293.3203 1141.5781,291.6641 Q1142.9063,290.0078 1145.4063,290.0078 Q1146.1094,290.0078 1146.75,290.1641 Q1147.4063,290.3203 1147.9688,290.6172 L1147.9688,293.3359 Q1147.3438,292.7578 1146.75,292.4922 Q1146.1563,292.2109 1145.5313,292.2109 Q1144.1875,292.2109 1143.5,293.2891 Q1142.8125,294.3516 1142.8125,296.4453 Q1142.8125,298.5391 1143.5,299.6172 Q1144.1875,300.6797 1145.5313,300.6797 Q1146.1563,300.6797 1146.75,300.4141 Q1147.3438,300.1328 1147.9688,299.5547 L1147.9688,302.2734 Z " fill="#000000"/><text fill="#000000" font-family="sans-serif" font-size="12" font-style="italic" lengthAdjust="spacing" textLength="87.7793" x="1157" y="292.6387">&#171;ValueObject&#187;</text><text fill="#000000" font-family="sans-serif" font-size="14" lengthAdjust="spacing" textLength="66.6367" x="1167.5713" y="308.4639">IssueTitle</text><line style="stroke:#181818;stroke-width:0.5;" x1="1131" x2="1244.7793" y1="316.7656" y2="316.7656"/><line style="stroke:#181818;stroke-width:0.5;" x1="1131" x2="1244.7793" y1="324.7656" y2="324.7656"/></g><g class="entity" data-entity="GMN35" data-source-line="13" data-uid="ent0036" id="entity_GMN35"><path d="M1281.5,292 L1281.5,300.5 L1246.17,304.5 L1281.5,308.5 L1281.5,317.1328 A0,0 0 0 0 1281.5,317.1328 L1366.3193,317.1328 A0,0 0 0 0 1366.3193,317.1328 L1366.3193,302 L1356.3193,292 L1281.5,292 A0,0 0 0 0 1281.5,292" fill="#FEFFDD" style="stroke:#181818;stroke-width:0.5;"/><path d="M1356.3193,292 L1356.3193,302 L1366.3193,302 L1356.3193,292" fill="#FEFFDD" style="stroke:#181818;stroke-width:0.5;"/><text fill="#000000" font-family="sans-serif" font-size="13" lengthAdjust="spacing" textLength="63.8193" x="1287.5" y="309.0669">1&#12316;20&#25991;&#23383;&#20197;&#20869;</text></g><!--class IssueStatus--><g class="entity" data-entity="IssueStatus" data-source-line="16" data-uid="ent0038" id="entity_IssueStatus"><rect fill="#F1F1F1" height="105.1563" rx="2.5" ry="2.5" style="stroke:#181818;stroke-width:0.5;" width="112.8145" x="981.5" y="252"/><ellipse cx="996.5" cy="272.1328" fill="#EB937F" rx="11" ry="11" style="stroke:#181818;stroke-width:1;"/><path d="M1000.6094,278.1328 L992.8906,278.1328 L992.8906,265.7422 L1000.6094,265.7422 L1000.6094,267.8984 L995.3438,267.8984 L995.3438,270.5703 L1000.1094,270.5703 L1000.1094,272.7266 L995.3438,272.7266 L995.3438,275.9766 L1000.6094,275.9766 L1000.6094,278.1328 Z " fill="#000000"/><text fill="#000000" font-family="sans-serif" font-size="12" font-style="italic" lengthAdjust="spacing" textLength="49.2949" x="1026.2598" y="268.1387">&#171;Enum&#187;</text><text fill="#000000" font-family="sans-serif" font-size="14" lengthAdjust="spacing" textLength="80.8145" x="1010.5" y="283.9639">IssueStatus</text><line style="stroke:#181818;stroke-width:0.5;" x1="982.5" x2="1093.3145" y1="292.2656" y2="292.2656"/><text fill="#000000" font-family="sans-serif" font-size="14" lengthAdjust="spacing" textLength="69.2275" x="987.5" y="309.2607">Unstarted</text><text fill="#000000" font-family="sans-serif" font-size="14" lengthAdjust="spacing" textLength="63.5811" x="987.5" y="325.5576">InReview</text><text fill="#000000" font-family="sans-serif" font-size="14" lengthAdjust="spacing" textLength="36.832" x="987.5" y="341.8545">Done</text><line style="stroke:#181818;stroke-width:0.5;" x1="982.5" x2="1093.3145" y1="349.1563" y2="349.1563"/></g><!--link Team to User--><g class="link" data-entity-1="Team" data-entity-2="User" data-source-line="12" data-uid="lnk39" id="link_Team_User"><path codeLine="12" d="M729.88,134.31 C757.13,149.18 785.52,168.72 806,193 C863.58,261.28 831.32,304.25 877,381 C880.24,386.45 924.46,437.27 959.17,476.9" fill="none" id="Team-User" style="stroke:#181818;stroke-width:1;"/><polygon fill="#000000" points="884.781,308.7216,882.1925,299.5701,877.3077,302.8394,884.781,308.7216" style="stroke:#000000;stroke-width:1;"/><text fill="#000000" font-family="sans-serif" font-size="13" lengthAdjust="spacing" textLength="73.6519" x="891" y="309.0669">"members"</text><text fill="#000000" font-family="sans-serif" font-size="13" lengthAdjust="spacing" textLength="8.271" x="737.5338" y="133.9189">1</text><text fill="#000000" font-family="sans-serif" font-size="13" lengthAdjust="spacing" textLength="23.0356" x="928.6619" y="466.0949">3..*</text></g><!--link Pair to User--><g class="link" data-entity-1="Pair" data-entity-2="User" data-source-line="13" data-uid="lnk40" id="link_Pair_User"><path codeLine="13" d="M616,345.3 C630.51,358.08 647.62,371.39 665,381 C697.23,398.82 707.76,399.47 744,406 C779.04,412.31 871.95,398.51 904,414 C932.16,427.61 955.58,453.49 972.35,476.79" fill="none" id="Pair-User" style="stroke:#181818;stroke-width:1;"/><polygon fill="#000000" points="753.6908,399.2973,746.2224,393.4089,744.1876,398.9233,753.6908,399.2973" style="stroke:#000000;stroke-width:1;"/><text fill="#000000" font-family="sans-serif" font-size="13" lengthAdjust="spacing" textLength="73.6519" x="758" y="402.0669">"members"</text><text fill="#000000" font-family="sans-serif" font-size="13" lengthAdjust="spacing" textLength="8.271" x="613.5056" y="364.8041">1</text><text fill="#000000" font-family="sans-serif" font-size="13" lengthAdjust="spacing" textLength="24.8066" x="970.0543" y="465.9694">2..3</text></g><!--link Team to Pair--><g class="link" data-entity-1="Team" data-entity-2="Pair" data-source-line="14" data-uid="lnk41" id="link_Team_Pair"><path codeLine="14" d="M631.7,138.03 C619.52,174.21 601.58,227.49 589.38,263.75" fill="none" id="Team-Pair" style="stroke:#181818;stroke-width:1;"/><polygon fill="#000000" points="623.4048,181.3051,629.0759,173.6703,623.5052,171.7951,623.4048,181.3051" style="stroke:#000000;stroke-width:1;"/><text fill="#000000" font-family="sans-serif" font-size="13" lengthAdjust="spacing" textLength="11.959" x="634" y="181.0669">""</text><text fill="#000000" font-family="sans-serif" font-size="13" lengthAdjust="spacing" textLength="8.271" x="620.972" y="157.7946">1</text><text fill="#000000" font-family="sans-serif" font-size="13" lengthAdjust="spacing" textLength="23.0356" x="566.6644" y="252.8701">0..*</text></g><!--link Issue to User--><g class="link" data-entity-1="Issue" data-entity-2="User" data-source-line="15" data-uid="lnk42" id="link_Issue_User"><path codeLine="15" d="M1433.55,353.17 C1418.55,364.23 1401.49,374.62 1384,381 C1357.02,390.84 1283.55,385.85 1255,389 C1184.77,396.75 1159.87,379.87 1098,414 C1071.07,428.86 1051.5823,449.3968 1034.7023,472.0768" fill="none" id="Issue-to-User" style="stroke:#181818;stroke-width:1;"/><polygon fill="#181818" points="1031.12,476.89,1039.7023,472.0584,1034.1053,472.879,1033.2847,467.282,1031.12,476.89" style="stroke:#181818;stroke-width:1;"/><polygon fill="#000000" points="1255.2084,398.9949,1264.7161,399.2272,1263.0368,393.5943,1255.2084,398.9949" style="stroke:#000000;stroke-width:1;"/><text fill="#000000" font-family="sans-serif" font-size="13" lengthAdjust="spacing" textLength="58.811" x="1269" y="402.0669">"creator"</text><text fill="#000000" font-family="sans-serif" font-size="13" lengthAdjust="spacing" textLength="8.271" x="1427.0644" y="372.801">1</text><text fill="#000000" font-family="sans-serif" font-size="13" lengthAdjust="spacing" textLength="8.271" x="1026.8011" y="466.0835">1</text></g><!--link Issue to User--><g class="link" data-entity-1="Issue" data-entity-2="User" data-source-line="16" data-uid="lnk43" id="link_Issue_User"><path codeLine="16" d="M1432.59,353.25 C1404.76,374.57 1368.89,396.93 1332,406 C1306.74,412.21 1121.51,402.87 1098,414 C1069.62,427.44 1049.6108,448.59 1032.8508,472.02" fill="none" id="Issue-to-User-1" style="stroke:#181818;stroke-width:1;"/><polygon fill="#181818" points="1029.36,476.9,1037.8495,471.9072,1032.269,472.8333,1031.3428,467.2528,1029.36,476.9" style="stroke:#181818;stroke-width:1;"/><polygon fill="#000000" points="1373.2071,398.9905,1382.7146,399.2315,1381.0405,393.5971,1373.2071,398.9905" style="stroke:#000000;stroke-width:1;"/><text fill="#000000" font-family="sans-serif" font-size="13" lengthAdjust="spacing" textLength="69.5703" x="1387" y="402.0669">"assignee"</text><text fill="#000000" font-family="sans-serif" font-size="13" lengthAdjust="spacing" textLength="8.271" x="1416.9004" y="372.8918">1</text><text fill="#000000" font-family="sans-serif" font-size="13" lengthAdjust="spacing" textLength="24.8066" x="1035.0813" y="466.0949">0..1</text></g><!--SRC=[ZS-z2i8m4C3nFKzntYWqVdIJ4d1qSz07EEiHWaqjIJE9xswQqbAn5ASGxfyVbuRA1sa6l31PE6hjM5FB250KuqqfU0c0bQdBAjmPsjXkQ9ZA9jXAl4KpK5VFxbygn7Q1EdaVU6ejKAPhVosHVeOxX2m3pALS8wGD3u2MxOsTHr3YJCQDrLxAVBRwihR9IWzZrOtxTVkvIkTWb8wfVRgPA2gJZhmtkcRkmWy0]--></g></svg>