<svg xmlns="http://www.w3.org/2000/svg" xmlns:xlink="http://www.w3.org/1999/xlink" contentStyleType="text/css" data-diagram-type="CLASS" height="1990.625px" preserveAspectRatio="none" style="width:6046px;height:1990px;background:#FFFFFF;" version="1.1" viewBox="0 0 6046 1990" width="6046.875px" zoomAndPan="magnify"><defs/><g><!--cluster Team Aggregate--><g class="cluster" data-entity="Team Aggregate" data-source-line="10" data-uid="ent0006" id="cluster_Team Aggregate"><path d="M767.1875,18.75 L1133.4045,18.75 A11.7188,11.7188 0 0 1 1141.217,26.5625 L1163.092,93.6523 L3407.8125,93.6523 A7.8125,7.8125 0 0 1 3415.625,101.4648 L3415.625,1167.1875 A7.8125,7.8125 0 0 1 3407.8125,1175 L767.1875,1175 A7.8125,7.8125 0 0 1 759.375,1167.1875 L759.375,26.5625 A7.8125,7.8125 0 0 1 767.1875,18.75" fill="none" style="stroke:#000000;stroke-width:4.6875;"/><line style="stroke:#000000;stroke-width:4.6875;" x1="759.375" x2="1163.092" y1="93.6523" y2="93.6523"/><text fill="#000000" font-family="Arial" font-size="37.5" font-weight="bold" lengthAdjust="spacing" textLength="350.592" x="778.125" y="66.0583">Team Aggregate</text><text fill="#000000" font-family="Arial" font-size="37.5" font-style="italic" lengthAdjust="spacing" textLength="242.5964" x="1978.7018" y="140.9607">&#171;Aggregate&#187;</text></g><!--cluster User Aggregate--><g class="cluster" data-entity="User Aggregate" data-source-line="13" data-uid="ent0024" id="cluster_User Aggregate"><path d="M3101.5625,1387.5 L3449.0845,1387.5 A11.7188,11.7188 0 0 1 3456.897,1395.3125 L3478.772,1462.4023 L4448.4375,1462.4023 A7.8125,7.8125 0 0 1 4456.25,1470.2148 L4456.25,1960.9375 A7.8125,7.8125 0 0 1 4448.4375,1968.75 L3101.5625,1968.75 A7.8125,7.8125 0 0 1 3093.75,1960.9375 L3093.75,1395.3125 A7.8125,7.8125 0 0 1 3101.5625,1387.5" fill="none" style="stroke:#000000;stroke-width:4.6875;"/><line style="stroke:#000000;stroke-width:4.6875;" x1="3093.75" x2="3478.772" y1="1462.4023" y2="1462.4023"/><text fill="#000000" font-family="Arial" font-size="37.5" font-weight="bold" lengthAdjust="spacing" textLength="331.897" x="3112.5" y="1434.8083">User Aggregate</text><text fill="#000000" font-family="Arial" font-size="37.5" font-style="italic" lengthAdjust="spacing" textLength="242.5964" x="3666.2018" y="1509.7107">&#171;Aggregate&#187;</text></g><!--cluster Issue Aggregate--><g class="cluster" data-entity="Issue Aggregate" data-source-line="16" data-uid="ent0030" id="cluster_Issue Aggregate"><path d="M3692.1875,646.875 L4053.7354,646.875 A11.7188,11.7188 0 0 1 4061.5479,654.6875 L4083.4229,721.7773 L6017.1875,721.7773 A7.8125,7.8125 0 0 1 6025,729.5898 L6025,1220.3125 A7.8125,7.8125 0 0 1 6017.1875,1228.125 L3692.1875,1228.125 A7.8125,7.8125 0 0 1 3684.375,1220.3125 L3684.375,654.6875 A7.8125,7.8125 0 0 1 3692.1875,646.875" fill="none" style="stroke:#000000;stroke-width:4.6875;"/><line style="stroke:#000000;stroke-width:4.6875;" x1="3684.375" x2="4083.4229" y1="721.7773" y2="721.7773"/><text fill="#000000" font-family="Arial" font-size="37.5" font-weight="bold" lengthAdjust="spacing" textLength="345.9229" x="3703.125" y="694.1833">Issue Aggregate</text><text fill="#000000" font-family="Arial" font-size="37.5" font-style="italic" lengthAdjust="spacing" textLength="242.5964" x="4745.8893" y="769.0857">&#171;Aggregate&#187;</text></g><!--class Team--><g class="entity" data-entity="Team" data-source-line="2" data-uid="ent0007" id="entity_Team"><rect fill="#F1F1F1" height="256.0547" rx="7.8125" ry="7.8125" style="stroke:#181818;stroke-width:1.5625;" width="473.407" x="2501.5625" y="187.5"/><ellipse cx="2666.7725" cy="234.375" fill="#ADD1B2" rx="31.25" ry="31.25" style="stroke:#181818;stroke-width:3.125;"/><path d="M2672.4854,247.6563 Q2671.2158,248.291 2669.7998,248.6328 Q2668.3838,248.9746 2666.8701,248.9746 Q2661.3037,248.9746 2658.374,245.3613 Q2655.4932,241.6992 2655.4932,234.8145 Q2655.4932,227.8809 2658.374,224.2676 Q2661.3037,220.6055 2666.8701,220.6055 Q2668.3838,220.6055 2669.7998,220.9473 Q2671.2646,221.2402 2672.4854,221.9238 L2672.4854,227.9297 Q2671.1182,226.6602 2669.7998,226.0742 Q2668.4814,225.4395 2667.1143,225.4395 Q2664.1357,225.4395 2662.6221,227.832 Q2661.1084,230.1758 2661.1084,234.8145 Q2661.1084,239.4043 2662.6221,241.748 Q2664.1357,244.0918 2667.1143,244.0918 Q2668.4814,244.0918 2669.7998,243.5059 Q2671.1182,242.9199 2672.4854,241.6504 L2672.4854,247.6563 Z " fill="#000000"/><text fill="#000000" font-family="Arial" font-size="37.5" lengthAdjust="spacing" textLength="105.4871" x="2732.3975" y="247.3572">Team</text><line style="stroke:#181818;stroke-width:1.5625;" x1="2504.6875" x2="2971.8445" y1="281.25" y2="281.25"/><ellipse cx="2535.9375" cy="326.5137" fill="none" rx="9.375" ry="9.375" style="stroke:#038048;stroke-width:3.125;"/><text fill="#000000" font-family="Arial" font-size="37.5" lengthAdjust="spacing" textLength="263.4521" x="2567.1875" y="334.8083">teamId : UUID</text><ellipse cx="2535.9375" cy="382.666" fill="none" rx="9.375" ry="9.375" style="stroke:#038048;stroke-width:3.125;"/><text fill="#000000" font-family="Arial" font-size="37.5" lengthAdjust="spacing" textLength="382.782" x="2567.1875" y="390.9607">name   : TeamName</text><line style="stroke:#181818;stroke-width:1.5625;" x1="2504.6875" x2="2971.8445" y1="418.5547" y2="418.5547"/></g><g class="entity" data-entity="GMN8" data-source-line="7" data-uid="ent0009" id="entity_GMN8"><path d="M3084.375,271.875 L3084.375,303.125 L2973.625,315.625 L3084.375,328.125 L3084.375,359.2773 A0,0 0 0 0 3084.375,359.2773 L3366.3879,359.2773 A0,0 0 0 0 3366.3879,359.2773 L3366.3879,303.125 L3335.1379,271.875 L3084.375,271.875 A0,0 0 0 0 3084.375,271.875" fill="#FEFFDD" style="stroke:#181818;stroke-width:1.5625;"/><path d="M3335.1379,271.875 L3335.1379,303.125 L3366.3879,303.125 L3335.1379,271.875" fill="#FEFFDD" style="stroke:#181818;stroke-width:1.5625;"/><text fill="#000000" font-family="Arial" font-size="37.5" lengthAdjust="spacing" textLength="203.8879" x="3109.375" y="328.5583">&#12513;&#12531;&#12496;&#12540;&#12399;&#26368;&#20302;3&#21517;</text></g><!--class Pair--><g class="entity" data-entity="Pair" data-source-line="10" data-uid="ent0011" id="entity_Pair"><rect fill="#F1F1F1" height="256.0547" rx="7.8125" ry="7.8125" style="stroke:#181818;stroke-width:1.5625;" width="402.3071" x="2301.5625" y="868.75"/><ellipse cx="2448.2513" cy="915.625" fill="#ADD1B2" rx="31.25" ry="31.25" style="stroke:#181818;stroke-width:3.125;"/><path d="M2453.9642,928.9063 Q2452.6947,929.541 2451.2787,929.8828 Q2449.8627,930.2246 2448.349,930.2246 Q2442.7826,930.2246 2439.8529,926.6113 Q2436.972,922.9492 2436.972,916.0645 Q2436.972,909.1309 2439.8529,905.5176 Q2442.7826,901.8555 2448.349,901.8555 Q2449.8627,901.8555 2451.2787,902.1973 Q2452.7435,902.4902 2453.9642,903.1738 L2453.9642,909.1797 Q2452.597,907.9102 2451.2787,907.3242 Q2449.9603,906.6895 2448.5931,906.6895 Q2445.6146,906.6895 2444.101,909.082 Q2442.5873,911.4258 2442.5873,916.0645 Q2442.5873,920.6543 2444.101,922.998 Q2445.6146,925.3418 2448.5931,925.3418 Q2449.9603,925.3418 2451.2787,924.7559 Q2452.597,924.1699 2453.9642,922.9004 L2453.9642,928.9063 Z " fill="#000000"/><text fill="#000000" font-family="Arial" font-size="37.5" lengthAdjust="spacing" textLength="71.4294" x="2513.8763" y="928.6072">Pair</text><line style="stroke:#181818;stroke-width:1.5625;" x1="2304.6875" x2="2700.7446" y1="962.5" y2="962.5"/><ellipse cx="2335.9375" cy="1007.7637" fill="none" rx="9.375" ry="9.375" style="stroke:#038048;stroke-width:3.125;"/><text fill="#000000" font-family="Arial" font-size="37.5" lengthAdjust="spacing" textLength="238.7878" x="2367.1875" y="1016.0583">pairId : UUID</text><ellipse cx="2335.9375" cy="1063.916" fill="none" rx="9.375" ry="9.375" style="stroke:#038048;stroke-width:3.125;"/><text fill="#000000" font-family="Arial" font-size="37.5" lengthAdjust="spacing" textLength="311.6821" x="2367.1875" y="1072.2107">label  : PairLabel</text><line style="stroke:#181818;stroke-width:1.5625;" x1="2304.6875" x2="2700.7446" y1="1099.8047" y2="1099.8047"/></g><g class="entity" data-entity="GMN12" data-source-line="15" data-uid="ent0013" id="entity_GMN12"><path d="M2815.625,953.125 L2815.625,984.375 L2705.375,996.875 L2815.625,1009.375 L2815.625,1040.5273 A0,0 0 0 0 2815.625,1040.5273 L3139.917,1040.5273 A0,0 0 0 0 3139.917,1040.5273 L3139.917,984.375 L3108.667,953.125 L2815.625,953.125 A0,0 0 0 0 2815.625,953.125" fill="#FEFFDD" style="stroke:#181818;stroke-width:1.5625;"/><path d="M3108.667,953.125 L3108.667,984.375 L3139.917,984.375 L3108.667,953.125" fill="#FEFFDD" style="stroke:#181818;stroke-width:1.5625;"/><text fill="#000000" font-family="Arial" font-size="37.5" lengthAdjust="spacing" textLength="246.167" x="2840.625" y="1009.8083">&#21516;Team&#20869; 2-3&#21517;</text></g><!--class TeamName--><g class="entity" data-entity="TeamName" data-source-line="19" data-uid="ent0015" id="entity_TeamName"><rect fill="#F1F1F1" height="193.5547" rx="7.8125" ry="7.8125" style="stroke:#181818;stroke-width:1.5625;" width="368.0603" x="1653.125" y="218.75"/><ellipse cx="1696.875" cy="290.5273" fill="#ADD1B2" rx="31.25" ry="31.25" style="stroke:#181818;stroke-width:3.125;"/><path d="M1702.5879,303.8086 Q1701.3184,304.4434 1699.9023,304.7852 Q1698.4863,305.127 1696.9727,305.127 Q1691.4063,305.127 1688.4766,301.5137 Q1685.5957,297.8516 1685.5957,290.9668 Q1685.5957,284.0332 1688.4766,280.4199 Q1691.4063,276.7578 1696.9727,276.7578 Q1698.4863,276.7578 1699.9023,277.0996 Q1701.3672,277.3926 1702.5879,278.0762 L1702.5879,284.082 Q1701.2207,282.8125 1699.9023,282.2266 Q1698.584,281.5918 1697.2168,281.5918 Q1694.2383,281.5918 1692.7246,283.9844 Q1691.2109,286.3281 1691.2109,290.9668 Q1691.2109,295.5566 1692.7246,297.9004 Q1694.2383,300.2441 1697.2168,300.2441 Q1698.584,300.2441 1699.9023,299.6582 Q1701.2207,299.0723 1702.5879,297.8027 L1702.5879,303.8086 Z " fill="#000000"/><text fill="#000000" font-family="Arial" font-size="37.5" font-style="italic" lengthAdjust="spacing" textLength="274.3103" x="1737.5" y="275.4333">&#171;ValueObject&#187;</text><text fill="#000000" font-family="Arial" font-size="37.5" lengthAdjust="spacing" textLength="216.1194" x="1766.5955" y="331.5857">TeamName</text><line style="stroke:#181818;stroke-width:1.5625;" x1="1656.25" x2="2018.0603" y1="362.3047" y2="362.3047"/><line style="stroke:#181818;stroke-width:1.5625;" x1="1656.25" x2="2018.0603" y1="387.3047" y2="387.3047"/></g><g class="entity" data-entity="GMN16" data-source-line="21" data-uid="ent0017" id="entity_GMN16"><path d="M2132.8125,271.875 L2132.8125,303.125 L2022.5938,315.625 L2132.8125,328.125 L2132.8125,359.2773 A0,0 0 0 0 2132.8125,359.2773 L2392.3218,359.2773 A0,0 0 0 0 2392.3218,359.2773 L2392.3218,303.125 L2361.0718,271.875 L2132.8125,271.875 A0,0 0 0 0 2132.8125,271.875" fill="#FEFFDD" style="stroke:#181818;stroke-width:1.5625;"/><path d="M2361.0718,271.875 L2361.0718,303.125 L2392.3218,303.125 L2361.0718,271.875" fill="#FEFFDD" style="stroke:#181818;stroke-width:1.5625;"/><text fill="#000000" font-family="Arial" font-size="37.5" lengthAdjust="spacing" textLength="181.3843" x="2157.8125" y="328.5583">&#19968;&#24847;&#12539;3&#25991;&#23383;&#20197;&#20869;</text></g><!--class PairLabel--><g class="entity" data-entity="PairLabel" data-source-line="24" data-uid="ent0019" id="entity_PairLabel"><rect fill="#F1F1F1" height="193.5547" rx="7.8125" ry="7.8125" style="stroke:#181818;stroke-width:1.5625;" width="368.0603" x="809.375" y="218.75"/><ellipse cx="853.125" cy="290.5273" fill="#ADD1B2" rx="31.25" ry="31.25" style="stroke:#181818;stroke-width:3.125;"/><path d="M858.8379,303.8086 Q857.5684,304.4434 856.1523,304.7852 Q854.7363,305.127 853.2227,305.127 Q847.6563,305.127 844.7266,301.5137 Q841.8457,297.8516 841.8457,290.9668 Q841.8457,284.0332 844.7266,280.4199 Q847.6563,276.7578 853.2227,276.7578 Q854.7363,276.7578 856.1523,277.0996 Q857.6172,277.3926 858.8379,278.0762 L858.8379,284.082 Q857.4707,282.8125 856.1523,282.2266 Q854.834,281.5918 853.4668,281.5918 Q850.4883,281.5918 848.9746,283.9844 Q847.4609,286.3281 847.4609,290.9668 Q847.4609,295.5566 848.9746,297.9004 Q850.4883,300.2441 853.4668,300.2441 Q854.834,300.2441 856.1523,299.6582 Q857.4707,299.0723 858.8379,297.8027 L858.8379,303.8086 Z " fill="#000000"/><text fill="#000000" font-family="Arial" font-size="37.5" font-style="italic" lengthAdjust="spacing" textLength="274.3103" x="893.75" y="275.4333">&#171;ValueObject&#187;</text><text fill="#000000" font-family="Arial" font-size="37.5" lengthAdjust="spacing" textLength="172.5952" x="944.6075" y="331.5857">PairLabel</text><line style="stroke:#181818;stroke-width:1.5625;" x1="812.5" x2="1174.3103" y1="362.3047" y2="362.3047"/><line style="stroke:#181818;stroke-width:1.5625;" x1="812.5" x2="1174.3103" y1="387.3047" y2="387.3047"/></g><g class="entity" data-entity="GMN20" data-source-line="26" data-uid="ent0021" id="entity_GMN20"><path d="M1287.5,271.875 L1287.5,303.125 L1178.3125,315.625 L1287.5,328.125 L1287.5,359.2773 A0,0 0 0 0 1287.5,359.2773 L1542.7612,359.2773 A0,0 0 0 0 1542.7612,359.2773 L1542.7612,303.125 L1511.5112,271.875 L1287.5,271.875 A0,0 0 0 0 1287.5,271.875" fill="#FEFFDD" style="stroke:#181818;stroke-width:1.5625;"/><path d="M1511.5112,271.875 L1511.5112,303.125 L1542.7612,303.125 L1511.5112,271.875" fill="#FEFFDD" style="stroke:#181818;stroke-width:1.5625;"/><text fill="#000000" font-family="Arial" font-size="37.5" lengthAdjust="spacing" textLength="177.1362" x="1312.5" y="328.5583">A&#12316;Z &#12398;1&#25991;&#23383;</text></g><!--class User--><g class="entity" data-entity="User" data-source-line="4" data-uid="ent0025" id="entity_User"><rect fill="#F1F1F1" height="312.207" rx="7.8125" ry="7.8125" style="stroke:#181818;stroke-width:1.5625;" width="447.2961" x="3567.1875" y="1581.25"/><ellipse cx="3729.3488" cy="1628.125" fill="#ADD1B2" rx="31.25" ry="31.25" style="stroke:#181818;stroke-width:3.125;"/><path d="M3735.0616,1641.4063 Q3733.7921,1642.041 3732.3761,1642.3828 Q3730.9601,1642.7246 3729.4464,1642.7246 Q3723.88,1642.7246 3720.9503,1639.1113 Q3718.0695,1635.4492 3718.0695,1628.5645 Q3718.0695,1621.6309 3720.9503,1618.0176 Q3723.88,1614.3555 3729.4464,1614.3555 Q3730.9601,1614.3555 3732.3761,1614.6973 Q3733.8409,1614.9902 3735.0616,1615.6738 L3735.0616,1621.6797 Q3733.6945,1620.4102 3732.3761,1619.8242 Q3731.0577,1619.1895 3729.6906,1619.1895 Q3726.712,1619.1895 3725.1984,1621.582 Q3723.6847,1623.9258 3723.6847,1628.5645 Q3723.6847,1633.1543 3725.1984,1635.498 Q3726.712,1637.8418 3729.6906,1637.8418 Q3731.0577,1637.8418 3732.3761,1637.2559 Q3733.6945,1636.6699 3735.0616,1635.4004 L3735.0616,1641.4063 Z " fill="#000000"/><text fill="#000000" font-family="Arial" font-size="37.5" lengthAdjust="spacing" textLength="85.4736" x="3794.9738" y="1641.1072">User</text><line style="stroke:#181818;stroke-width:1.5625;" x1="3570.3125" x2="4011.3586" y1="1675" y2="1675"/><ellipse cx="3601.5625" cy="1720.2637" fill="none" rx="9.375" ry="9.375" style="stroke:#038048;stroke-width:3.125;"/><text fill="#000000" font-family="Arial" font-size="37.5" lengthAdjust="spacing" textLength="247.9614" x="3632.8125" y="1728.5583">userId : UUID</text><ellipse cx="3601.5625" cy="1776.416" fill="none" rx="9.375" ry="9.375" style="stroke:#038048;stroke-width:3.125;"/><text fill="#000000" font-family="Arial" font-size="37.5" lengthAdjust="spacing" textLength="255.8533" x="3632.8125" y="1784.7107">email  : Email</text><ellipse cx="3601.5625" cy="1832.5684" fill="none" rx="9.375" ry="9.375" style="stroke:#038048;stroke-width:3.125;"/><text fill="#000000" font-family="Arial" font-size="37.5" lengthAdjust="spacing" textLength="356.6711" x="3632.8125" y="1840.863">status : UserStatus</text><line style="stroke:#181818;stroke-width:1.5625;" x1="3570.3125" x2="4011.3586" y1="1868.457" y2="1868.457"/></g><g class="entity" data-entity="GMN26" data-source-line="10" data-uid="ent0027" id="entity_GMN26"><path d="M4125,1693.75 L4125,1725 L4014.2188,1737.5 L4125,1750 L4125,1781.1523 A0,0 0 0 0 4125,1781.1523 L4405.658,1781.1523 A0,0 0 0 0 4405.658,1781.1523 L4405.658,1725 L4374.408,1693.75 L4125,1693.75 A0,0 0 0 0 4125,1693.75" fill="#FEFFDD" style="stroke:#181818;stroke-width:1.5625;"/><path d="M4374.408,1693.75 L4374.408,1725 L4405.658,1725 L4374.408,1693.75" fill="#FEFFDD" style="stroke:#181818;stroke-width:1.5625;"/><text fill="#000000" font-family="Arial" font-size="37.5" lengthAdjust="spacing" textLength="202.533" x="4150" y="1750.4333">&#38750;&#22312;&#31821;&#20013;&#12399;&#25152;&#23646;&#31105;&#27490;</text></g><!--class UserStatus--><g class="entity" data-entity="UserStatus" data-source-line="14" data-uid="ent0029" id="entity_UserStatus"><rect fill="#F1F1F1" height="362.0117" rx="7.8125" ry="7.8125" style="stroke:#181818;stroke-width:1.5625;" width="311.2183" x="3143.75" y="1556.25"/><ellipse cx="3187.5" cy="1628.0273" fill="#EB937F" rx="31.25" ry="31.25" style="stroke:#181818;stroke-width:3.125;"/><path d="M3195.1172,1642.0898 L3178.0762,1642.0898 L3178.0762,1614.7461 L3195.1172,1614.7461 L3195.1172,1619.5313 L3183.4961,1619.5313 L3183.4961,1625.3906 L3193.9941,1625.3906 L3193.9941,1630.1758 L3183.4961,1630.1758 L3183.4961,1637.3047 L3195.1172,1637.3047 L3195.1172,1642.0898 Z " fill="#000000"/><text fill="#000000" font-family="Arial" font-size="37.5" font-style="italic" lengthAdjust="spacing" textLength="154.0466" x="3259.8358" y="1612.9333">&#171;Enum&#187;</text><text fill="#000000" font-family="Arial" font-size="37.5" lengthAdjust="spacing" textLength="204.9683" x="3234.375" y="1669.0857">UserStatus</text><line style="stroke:#181818;stroke-width:1.5625;" x1="3146.875" x2="3451.8433" y1="1699.8047" y2="1699.8047"/><text fill="#000000" font-family="Arial" font-size="37.5" lengthAdjust="spacing" textLength="153.5339" x="3168.75" y="1753.363">Enrolled</text><text fill="#000000" font-family="Arial" font-size="37.5" lengthAdjust="spacing" textLength="208.429" x="3168.75" y="1809.5154">Suspended</text><text fill="#000000" font-family="Arial" font-size="37.5" lengthAdjust="spacing" textLength="202.6062" x="3168.75" y="1865.6677">Withdrawn</text><line style="stroke:#181818;stroke-width:1.5625;" x1="3146.875" x2="3451.8433" y1="1893.2617" y2="1893.2617"/></g><!--class Issue--><g class="entity" data-entity="Issue" data-source-line="1" data-uid="ent0031" id="entity_Issue"><rect fill="#F1F1F1" height="312.207" rx="7.8125" ry="7.8125" style="stroke:#181818;stroke-width:1.5625;" width="470.7153" x="5020.3125" y="840.625"/><ellipse cx="5188.4338" cy="887.5" fill="#ADD1B2" rx="31.25" ry="31.25" style="stroke:#181818;stroke-width:3.125;"/><path d="M5194.1467,900.7813 Q5192.8772,901.416 5191.4612,901.7578 Q5190.0452,902.0996 5188.5315,902.0996 Q5182.9651,902.0996 5180.0354,898.4863 Q5177.1545,894.8242 5177.1545,887.9395 Q5177.1545,881.0059 5180.0354,877.3926 Q5182.9651,873.7305 5188.5315,873.7305 Q5190.0452,873.7305 5191.4612,874.0723 Q5192.926,874.3652 5194.1467,875.0488 L5194.1467,881.0547 Q5192.7795,879.7852 5191.4612,879.1992 Q5190.1428,878.5645 5188.7756,878.5645 Q5185.7971,878.5645 5184.2834,880.957 Q5182.7698,883.3008 5182.7698,887.9395 Q5182.7698,892.5293 5184.2834,894.873 Q5185.7971,897.2168 5188.7756,897.2168 Q5190.1428,897.2168 5191.4612,896.6309 Q5192.7795,896.0449 5194.1467,894.7754 L5194.1467,900.7813 Z " fill="#000000"/><text fill="#000000" font-family="Arial" font-size="37.5" lengthAdjust="spacing" textLength="96.9727" x="5254.0588" y="900.4822">Issue</text><line style="stroke:#181818;stroke-width:1.5625;" x1="5023.4375" x2="5487.9028" y1="934.375" y2="934.375"/><ellipse cx="5054.6875" cy="979.6387" fill="none" rx="9.375" ry="9.375" style="stroke:#038048;stroke-width:3.125;"/><text fill="#000000" font-family="Arial" font-size="37.5" lengthAdjust="spacing" textLength="262.5" x="5085.9375" y="987.9333">issueId : UUID</text><ellipse cx="5054.6875" cy="1035.791" fill="none" rx="9.375" ry="9.375" style="stroke:#038048;stroke-width:3.125;"/><text fill="#000000" font-family="Arial" font-size="37.5" lengthAdjust="spacing" textLength="312.1216" x="5085.9375" y="1044.0857">title   : IssueTitle</text><ellipse cx="5054.6875" cy="1091.9434" fill="none" rx="9.375" ry="9.375" style="stroke:#038048;stroke-width:3.125;"/><text fill="#000000" font-family="Arial" font-size="37.5" lengthAdjust="spacing" textLength="380.0903" x="5085.9375" y="1100.238">status  : IssueStatus</text><line style="stroke:#181818;stroke-width:1.5625;" x1="5023.4375" x2="5487.9028" y1="1127.832" y2="1127.832"/></g><g class="entity" data-entity="GMN32" data-source-line="7" data-uid="ent0033" id="entity_GMN32"><path d="M5601.5625,953.125 L5601.5625,984.375 L5492.8125,996.875 L5601.5625,1009.375 L5601.5625,1040.5273 A0,0 0 0 0 5601.5625,1040.5273 L5972.2351,1040.5273 A0,0 0 0 0 5972.2351,1040.5273 L5972.2351,984.375 L5940.9851,953.125 L5601.5625,953.125 A0,0 0 0 0 5601.5625,953.125" fill="#FEFFDD" style="stroke:#181818;stroke-width:1.5625;"/><path d="M5940.9851,953.125 L5940.9851,984.375 L5972.2351,984.375 L5940.9851,953.125" fill="#FEFFDD" style="stroke:#181818;stroke-width:1.5625;"/><text fill="#000000" font-family="Arial" font-size="37.5" lengthAdjust="spacing" textLength="292.5476" x="5626.5625" y="1009.8083">&#25285;&#24403;&#32773;&#12398;&#12415;&#12473;&#12486;&#12540;&#12479;&#12473;&#22793;&#26356;&#21487;</text></g><!--class IssueTitle--><g class="entity" data-entity="IssueTitle" data-source-line="11" data-uid="ent0035" id="entity_IssueTitle"><rect fill="#F1F1F1" height="193.5547" rx="7.8125" ry="7.8125" style="stroke:#181818;stroke-width:1.5625;" width="368.0603" x="4168.75" y="900"/><ellipse cx="4212.5" cy="971.7773" fill="#ADD1B2" rx="31.25" ry="31.25" style="stroke:#181818;stroke-width:3.125;"/><path d="M4218.2129,985.0586 Q4216.9434,985.6934 4215.5273,986.0352 Q4214.1113,986.377 4212.5977,986.377 Q4207.0313,986.377 4204.1016,982.7637 Q4201.2207,979.1016 4201.2207,972.2168 Q4201.2207,965.2832 4204.1016,961.6699 Q4207.0313,958.0078 4212.5977,958.0078 Q4214.1113,958.0078 4215.5273,958.3496 Q4216.9922,958.6426 4218.2129,959.3262 L4218.2129,965.332 Q4216.8457,964.0625 4215.5273,963.4766 Q4214.209,962.8418 4212.8418,962.8418 Q4209.8633,962.8418 4208.3496,965.2344 Q4206.8359,967.5781 4206.8359,972.2168 Q4206.8359,976.8066 4208.3496,979.1504 Q4209.8633,981.4941 4212.8418,981.4941 Q4214.209,981.4941 4215.5273,980.9082 Q4216.8457,980.3223 4218.2129,979.0527 L4218.2129,985.0586 Z " fill="#000000"/><text fill="#000000" font-family="Arial" font-size="37.5" font-style="italic" lengthAdjust="spacing" textLength="274.3103" x="4253.125" y="956.6833">&#171;ValueObject&#187;</text><text fill="#000000" font-family="Arial" font-size="37.5" lengthAdjust="spacing" textLength="178.4912" x="4301.0345" y="1012.8357">IssueTitle</text><line style="stroke:#181818;stroke-width:1.5625;" x1="4171.875" x2="4533.6853" y1="1043.5547" y2="1043.5547"/><line style="stroke:#181818;stroke-width:1.5625;" x1="4171.875" x2="4533.6853" y1="1068.5547" y2="1068.5547"/></g><g class="entity" data-entity="GMN36" data-source-line="13" data-uid="ent0037" id="entity_GMN36"><path d="M4646.875,953.125 L4646.875,984.375 L4538.2188,996.875 L4646.875,1009.375 L4646.875,1040.5273 A0,0 0 0 0 4646.875,1040.5273 L4909.0942,1040.5273 A0,0 0 0 0 4909.0942,1040.5273 L4909.0942,984.375 L4877.8442,953.125 L4646.875,953.125 A0,0 0 0 0 4646.875,953.125" fill="#FEFFDD" style="stroke:#181818;stroke-width:1.5625;"/><path d="M4877.8442,953.125 L4877.8442,984.375 L4909.0942,984.375 L4877.8442,953.125" fill="#FEFFDD" style="stroke:#181818;stroke-width:1.5625;"/><text fill="#000000" font-family="Arial" font-size="37.5" lengthAdjust="spacing" textLength="184.0942" x="4671.875" y="1009.8083">1&#12316;20&#25991;&#23383;&#20197;&#20869;</text></g><!--class IssueStatus--><g class="entity" data-entity="IssueStatus" data-source-line="16" data-uid="ent0039" id="entity_IssueStatus"><rect fill="#F1F1F1" height="362.0117" rx="7.8125" ry="7.8125" style="stroke:#181818;stroke-width:1.5625;" width="322.7173" x="3735.9375" y="815.625"/><ellipse cx="3779.6875" cy="887.4023" fill="#EB937F" rx="31.25" ry="31.25" style="stroke:#181818;stroke-width:3.125;"/><path d="M3787.3047,901.4648 L3770.2637,901.4648 L3770.2637,874.1211 L3787.3047,874.1211 L3787.3047,878.9063 L3775.6836,878.9063 L3775.6836,884.7656 L3786.1816,884.7656 L3786.1816,889.5508 L3775.6836,889.5508 L3775.6836,896.6797 L3787.3047,896.6797 L3787.3047,901.4648 Z " fill="#000000"/><text fill="#000000" font-family="Arial" font-size="37.5" font-style="italic" lengthAdjust="spacing" textLength="154.0466" x="3857.7728" y="872.3083">&#171;Enum&#187;</text><text fill="#000000" font-family="Arial" font-size="37.5" lengthAdjust="spacing" textLength="216.4673" x="3826.5625" y="928.4607">IssueStatus</text><line style="stroke:#181818;stroke-width:1.5625;" x1="3739.0625" x2="4055.5298" y1="959.1797" y2="959.1797"/><text fill="#000000" font-family="Arial" font-size="37.5" lengthAdjust="spacing" textLength="185.4309" x="3760.9375" y="1012.738">Unstarted</text><text fill="#000000" font-family="Arial" font-size="37.5" lengthAdjust="spacing" textLength="170.3064" x="3760.9375" y="1068.8904">InReview</text><text fill="#000000" font-family="Arial" font-size="37.5" lengthAdjust="spacing" textLength="98.6572" x="3760.9375" y="1125.0427">Done</text><line style="stroke:#181818;stroke-width:1.5625;" x1="3739.0625" x2="4055.5298" y1="1152.6367" y2="1152.6367"/></g><!--class Email--><g class="entity" data-entity="Email" data-source-line="1" data-uid="ent0002" id="entity_Email"><rect fill="#F1F1F1" height="193.5547" rx="7.8125" ry="7.8125" style="stroke:#181818;stroke-width:1.5625;" width="368.0603" x="21.875" y="218.75"/><ellipse cx="65.625" cy="290.5273" fill="#ADD1B2" rx="31.25" ry="31.25" style="stroke:#181818;stroke-width:3.125;"/><path d="M71.3379,303.8086 Q70.0684,304.4434 68.6523,304.7852 Q67.2363,305.127 65.7227,305.127 Q60.1563,305.127 57.2266,301.5137 Q54.3457,297.8516 54.3457,290.9668 Q54.3457,284.0332 57.2266,280.4199 Q60.1563,276.7578 65.7227,276.7578 Q67.2363,276.7578 68.6523,277.0996 Q70.1172,277.3926 71.3379,278.0762 L71.3379,284.082 Q69.9707,282.8125 68.6523,282.2266 Q67.334,281.5918 65.9668,281.5918 Q62.9883,281.5918 61.4746,283.9844 Q59.9609,286.3281 59.9609,290.9668 Q59.9609,295.5566 61.4746,297.9004 Q62.9883,300.2441 65.9668,300.2441 Q67.334,300.2441 68.6523,299.6582 Q69.9707,299.0723 71.3379,297.8027 L71.3379,303.8086 Z " fill="#000000"/><text fill="#000000" font-family="Arial" font-size="37.5" font-style="italic" lengthAdjust="spacing" textLength="274.3103" x="106.25" y="275.4333">&#171;ValueObject&#187;</text><text fill="#000000" font-family="Arial" font-size="37.5" lengthAdjust="spacing" textLength="104.0405" x="191.3849" y="331.5857">Email</text><line style="stroke:#181818;stroke-width:1.5625;" x1="25" x2="386.8103" y1="362.3047" y2="362.3047"/><line style="stroke:#181818;stroke-width:1.5625;" x1="25" x2="386.8103" y1="387.3047" y2="387.3047"/></g><g class="entity" data-entity="GMN3" data-source-line="3" data-uid="ent0004" id="entity_GMN3"><path d="M501.5625,271.875 L501.5625,303.125 L390.8125,315.625 L501.5625,328.125 L501.5625,359.2773 A0,0 0 0 0 501.5625,359.2773 L698.5046,359.2773 A0,0 0 0 0 698.5046,359.2773 L698.5046,303.125 L667.2546,271.875 L501.5625,271.875 A0,0 0 0 0 501.5625,271.875" fill="#FEFFDD" style="stroke:#181818;stroke-width:1.5625;"/><path d="M667.2546,271.875 L667.2546,303.125 L698.5046,303.125 L667.2546,271.875" fill="#FEFFDD" style="stroke:#181818;stroke-width:1.5625;"/><text fill="#000000" font-family="Arial" font-size="37.5" lengthAdjust="spacing" textLength="118.8171" x="526.5625" y="328.5583">RFC&#28310;&#25312;</text></g><!--reverse link Team to Pair--><g class="link" data-entity-1="Team" data-entity-2="Pair" data-source-line="29" data-uid="lnk23" id="link_Team_Pair"><path codeLine="29" d="M2533.1202,471.6173 C2506.4952,498.961 2509.0313,503.2187 2493.75,537.5 C2447.25,641.6875 2456.0313,773.0313 2472.625,868" fill="none" id="Team-backto-Pair" style="stroke:#181818;stroke-width:3.125;"/><polygon fill="none" points="2559.2813,444.75,2537.245,449.4633,2533.1202,471.6173,2555.1565,466.904,2559.2813,444.75" style="stroke:#181818;stroke-width:3.125;"/><text fill="#000000" font-family="Arial" font-size="37.5" lengthAdjust="spacing" textLength="92.157" x="2503.125" y="581.6833">pairs</text><text fill="#000000" font-family="Arial" font-size="37.5" lengthAdjust="spacing" textLength="18.75" x="2439.4818" y="828.5331">*</text></g><!--link Team to Pair--><g class="link" data-entity-1="Team" data-entity-2="Pair" data-source-line="22" data-uid="lnk42" id="link_Team_Pair"><path codeLine="22" d="M2693.9688,444.125 C2652,565 2588.8438,746.875 2546.8125,867.9063" fill="none" id="Team-Pair" style="stroke:#181818;stroke-width:3.125;"/><polygon fill="#000000" points="2661.5246,580.5095,2675.8831,561.5582,2662.0015,556.7379,2661.5246,580.5095" style="stroke:#000000;stroke-width:3.125;"/><text fill="#000000" font-family="Arial" font-size="37.5" lengthAdjust="spacing" textLength="34.4971" x="2700" y="581.6833">""</text><text fill="#000000" font-family="Arial" font-size="37.5" lengthAdjust="spacing" textLength="23.8586" x="2656.5808" y="509.174">1</text><text fill="#000000" font-family="Arial" font-size="37.5" lengthAdjust="spacing" textLength="66.449" x="2567.9486" y="828.4226">0..*</text></g><!--link Team to User--><g class="link" data-entity-1="Team" data-entity-2="User" data-source-line="20" data-uid="lnk40" id="link_Team_User"><path codeLine="20" d="M2973.4688,433.875 C3053.4688,482.5625 3137.5,545.8125 3196.875,621.875 C3379.8438,856.3125 3270.125,995.5313 3418.75,1253.125 C3450.75,1308.5938 3472.4688,1312.5313 3512.5,1362.5 C3568.9375,1432.9688 3629.25,1512.9688 3679.2187,1580.6562" fill="none" id="Team-User" style="stroke:#181818;stroke-width:3.125;"/><polygon fill="#000000" points="3437.8015,1009.0342,3432.2071,985.9254,3419.6924,993.6271,3437.8015,1009.0342" style="stroke:#000000;stroke-width:3.125;"/><text fill="#000000" font-family="Arial" font-size="37.5" lengthAdjust="spacing" textLength="212.4573" x="3465.625" y="1011.3708">"members"</text><text fill="#000000" font-family="Arial" font-size="37.5" lengthAdjust="spacing" textLength="23.8586" x="3005.8488" y="431.4298">1</text><text fill="#000000" font-family="Arial" font-size="37.5" lengthAdjust="spacing" textLength="66.449" x="3584.3341" y="1540.7597">3..*</text></g><!--link Pair to User--><g class="link" data-entity-1="Pair" data-entity-2="User" data-source-line="21" data-uid="lnk41" id="link_Pair_User"><path codeLine="21" d="M2609.8438,1125.5938 C2653.4063,1170.7813 2706.6875,1218.9688 2762.5,1253.125 C2862.5,1314.3438 2897.2813,1315.625 3012.5,1337.5 C3067.1563,1347.875 3463.4063,1336.3438 3512.5,1362.5 C3602.1563,1410.25 3670.9375,1501.0625 3717.6563,1581.0313" fill="none" id="Pair-User" style="stroke:#181818;stroke-width:3.125;"/><polygon fill="#000000" points="3036.5611,1314.0791,3018.4406,1298.6855,3012.8531,1312.2764,3036.5611,1314.0791" style="stroke:#000000;stroke-width:3.125;"/><text fill="#000000" font-family="Arial" font-size="37.5" lengthAdjust="spacing" textLength="212.4573" x="3059.375" y="1322.3083">"members"</text><text fill="#000000" font-family="Arial" font-size="37.5" lengthAdjust="spacing" textLength="23.8586" x="2595.6427" y="1190.6763">1</text><text fill="#000000" font-family="Arial" font-size="37.5" lengthAdjust="spacing" textLength="71.5576" x="3719.1363" y="1541.1922">2..3</text></g><!--link Issue to User--><g class="link" data-entity-1="Issue" data-entity-2="User" data-source-line="23" data-uid="lnk43" id="link_Issue_User"><path codeLine="23" d="M5116.9375,1153.8125 C5072.6563,1193.0938 5020.75,1230.5625 4965.625,1253.125 C4880.625,1287.9063 4644.3438,1267.4063 4553.125,1278.125 C4337.4688,1303.4688 4257.1875,1249.2813 4071.875,1362.5 C3986.5625,1414.625 3927.9995,1487.0608 3879.9682,1564.5921" fill="none" id="Issue-to-User" style="stroke:#181818;stroke-width:3.125;"/><polygon fill="#181818" points="3870.0938,1580.5313,3895.5316,1563.2054,3878.3225,1567.2486,3874.2793,1550.0395,3870.0938,1580.5313" style="stroke:#181818;stroke-width:3.125;"/><polygon fill="#000000" points="4553.762,1313.2657,4577.5379,1313.1119,4572.9068,1299.1662,4553.762,1313.2657" style="stroke:#000000;stroke-width:3.125;"/><text fill="#000000" font-family="Arial" font-size="37.5" lengthAdjust="spacing" textLength="169.6472" x="4600" y="1322.3083">"creator"</text><text fill="#000000" font-family="Arial" font-size="37.5" lengthAdjust="spacing" textLength="23.8586" x="5107.7416" y="1218.5945">1</text><text fill="#000000" font-family="Arial" font-size="37.5" lengthAdjust="spacing" textLength="23.8586" x="3891.2639" y="1540.6156">1</text></g><!--link Issue to User--><g class="link" data-entity-1="Issue" data-entity-2="User" data-source-line="24" data-uid="lnk44" id="link_Issue_User"><path codeLine="24" d="M5107.375,1153.9063 C5022.9063,1228.375 4910.3438,1307.9375 4790.625,1337.5 C4713.0313,1356.6563 4142.7813,1325.6563 4071.875,1362.5 C3981.375,1409.5 3921.3442,1484.1972 3874.0629,1564.291" fill="none" id="Issue-to-User-1" style="stroke:#181818;stroke-width:3.125;"/><polygon fill="#181818" points="3864.5313,1580.4375,3889.5931,1562.5722,3872.4743,1566.9821,3868.0644,1549.8633,3864.5313,1580.4375" style="stroke:#181818;stroke-width:3.125;"/><polygon fill="#000000" points="4931.8894,1313.2728,4955.6652,1313.1048,4951.0257,1299.1618,4931.8894,1313.2728" style="stroke:#000000;stroke-width:3.125;"/><text fill="#000000" font-family="Arial" font-size="37.5" lengthAdjust="spacing" textLength="200.6836" x="4978.125" y="1322.3083">"assignee"</text><text fill="#000000" font-family="Arial" font-size="37.5" lengthAdjust="spacing" textLength="23.8586" x="5058.1746" y="1218.7003">1</text><text fill="#000000" font-family="Arial" font-size="37.5" lengthAdjust="spacing" textLength="71.5576" x="3794.5947" y="1541.6448">0..1</text></g><!--SRC=[ZO_1IiD048Rl-nJZNWIXQPhSf0Hw4Ro8e3x0c8phqcmQTfEB8ZG-XXSH10jY3vx4rwdLF8QRXCQ8eNYQcVs_-PZTXV9XyVNulYgM7s_pylNvS_va-rLnlxejR5CkNjRBEsQcCabHeu8ebU2xRlU5BZ2FiuDPaXsX8fXeYN5_VYAl24PU9qmnYcGYm6DiHoPXd4S4vX8rHKDIA6CdpLNCM8hX50K1FoMxD152ay2CEC1ut4v10DSCeFLabXtY9crCDp-gCqFwlwhSibjKXyRar7LjKScA_UjYzS_uYCDW0Dntd3qEzONxm1MfSzA6Gy2EKUgMyXp7xwL-kTpQLIzQgegRSviygEl64Mh2RAPx86lfS6YC50bH1Nu3]--></g></svg>