<svg xmlns="http://www.w3.org/2000/svg" xmlns:xlink="http://www.w3.org/1999/xlink" contentStyleType="text/css" data-diagram-type="CLASS" height="1737.5px" preserveAspectRatio="none" style="width:1200px;height:1737px;background:#FFFFFF;" version="1.1" viewBox="0 0 1200 1737" width="1200px" zoomAndPan="magnify"><defs/><g><!--class user--><g class="entity" data-entity="user" data-source-line="9" data-uid="ent0002" id="entity_user"><rect fill="#F1F1F1" height="421.8567" rx="7.8125" ry="7.8125" style="stroke:#181818;stroke-width:1.5625;" width="414.7827" x="21.875" y="21.875"/><ellipse cx="170.929" cy="68.75" fill="#ADD1B2" rx="31.25" ry="31.25" style="stroke:#181818;stroke-width:3.125;"/><path d="M180.0964,82.8125 L163.0676,82.8125 L163.0676,55.4749 L180.0964,55.4749 L180.0964,60.2356 L168.4692,60.2356 L168.4692,66.1316 L178.9978,66.1316 L178.9978,70.8923 L168.4692,70.8923 L168.4692,78.0518 L180.0964,78.0518 Z " fill="#000000"/><text fill="#000000" font-family="Arial" font-size="37.5" lengthAdjust="spacing" textLength="79.1748" x="236.554" y="82.3639">User</text><line style="stroke:#181818;stroke-width:1.5625;" x1="25" x2="433.5327" y1="115.625" y2="115.625"/><ellipse cx="56.25" cy="160.6232" fill="none" rx="9.375" ry="9.375" style="stroke:#038048;stroke-width:3.125;"/><text fill="#000000" font-family="Arial" font-size="37.5" lengthAdjust="spacing" textLength="254.2603" x="87.5" y="169.5496">id : UUID &#171;PK&#187;</text><line style="stroke:#181818;stroke-width:3.125;" x1="25" x2="433.5327" y1="196.2463" y2="196.2463"/><text fill="#000000" font-family="Arial" font-size="37.5" lengthAdjust="spacing" textLength="323.053" x="46.875" y="250.1709">email : String &#171;UK&#187;</text><text fill="#000000" font-family="Arial" font-size="37.5" lengthAdjust="spacing" textLength="223.0225" x="46.875" y="305.7922">name : String</text><text fill="#000000" font-family="Arial" font-size="37.5" lengthAdjust="spacing" textLength="354.3091" x="46.875" y="361.4136">createdAt : DateTime</text><text fill="#000000" font-family="Arial" font-size="37.5" lengthAdjust="spacing" textLength="364.7827" x="46.875" y="417.0349">updatedAt : DateTime</text></g><!--class team--><g class="entity" data-entity="team" data-source-line="18" data-uid="ent0003" id="entity_team"><rect fill="#F1F1F1" height="421.8567" rx="7.8125" ry="7.8125" style="stroke:#181818;stroke-width:1.5625;" width="541.9678" x="623.9063" y="21.875"/><ellipse cx="828.2123" cy="68.75" fill="#ADD1B2" rx="31.25" ry="31.25" style="stroke:#181818;stroke-width:3.125;"/><path d="M837.3798,82.8125 L820.351,82.8125 L820.351,55.4749 L837.3798,55.4749 L837.3798,60.2356 L825.7526,60.2356 L825.7526,66.1316 L836.2811,66.1316 L836.2811,70.8923 L825.7526,70.8923 L825.7526,78.0518 L837.3798,78.0518 Z " fill="#000000"/><text fill="#000000" font-family="Arial" font-size="37.5" lengthAdjust="spacing" textLength="95.8557" x="893.8373" y="82.3639">Team</text><line style="stroke:#181818;stroke-width:1.5625;" x1="627.0313" x2="1162.749" y1="115.625" y2="115.625"/><ellipse cx="658.2813" cy="160.6232" fill="none" rx="9.375" ry="9.375" style="stroke:#038048;stroke-width:3.125;"/><text fill="#000000" font-family="Arial" font-size="37.5" lengthAdjust="spacing" textLength="254.2603" x="689.5313" y="169.5496">id : UUID &#171;PK&#187;</text><line style="stroke:#181818;stroke-width:3.125;" x1="627.0313" x2="1162.749" y1="196.2463" y2="196.2463"/><text fill="#000000" font-family="Arial" font-size="37.5" lengthAdjust="spacing" textLength="327.2461" x="648.9063" y="250.1709">name : String &#171;UK&#187;</text><text fill="#000000" font-family="Arial" font-size="37.5" lengthAdjust="spacing" textLength="491.9678" x="648.9063" y="305.7922">description : String &#171;nullable&#187;</text><text fill="#000000" font-family="Arial" font-size="37.5" lengthAdjust="spacing" textLength="354.3091" x="648.9063" y="361.4136">createdAt : DateTime</text><text fill="#000000" font-family="Arial" font-size="37.5" lengthAdjust="spacing" textLength="364.7827" x="648.9063" y="417.0349">updatedAt : DateTime</text></g><!--class teamUser--><g class="entity" data-entity="teamUser" data-source-line="27" data-uid="ent0004" id="entity_teamUser"><rect fill="#F1F1F1" height="477.478" rx="7.8125" ry="7.8125" style="stroke:#181818;stroke-width:1.5625;" width="414.7827" x="240.625" y="631.2187"/><ellipse cx="344.451" cy="678.0937" fill="#ADD1B2" rx="31.25" ry="31.25" style="stroke:#181818;stroke-width:3.125;"/><path d="M353.6185,692.1562 L336.5897,692.1562 L336.5897,664.8186 L353.6185,664.8186 L353.6185,669.5793 L341.9913,669.5793 L341.9913,675.4753 L352.5198,675.4753 L352.5198,680.2361 L341.9913,680.2361 L341.9913,687.3955 L353.6185,687.3955 Z " fill="#000000"/><text fill="#000000" font-family="Arial" font-size="37.5" lengthAdjust="spacing" textLength="175.0305" x="404.6762" y="691.7076">TeamUser</text><line style="stroke:#181818;stroke-width:1.5625;" x1="243.75" x2="652.2827" y1="724.9687" y2="724.9687"/><ellipse cx="275" cy="769.9669" fill="none" rx="9.375" ry="9.375" style="stroke:#038048;stroke-width:3.125;"/><text fill="#000000" font-family="Arial" font-size="37.5" lengthAdjust="spacing" textLength="254.2603" x="306.25" y="778.8933">id : UUID &#171;PK&#187;</text><line style="stroke:#181818;stroke-width:3.125;" x1="243.75" x2="652.2827" y1="805.5901" y2="805.5901"/><text fill="#000000" font-family="Arial" font-size="37.5" lengthAdjust="spacing" textLength="327.1912" x="265.625" y="859.5146">userId : UUID &#171;FK&#187;</text><text fill="#000000" font-family="Arial" font-size="37.5" lengthAdjust="spacing" textLength="337.6099" x="265.625" y="915.136">teamId : UUID &#171;FK&#187;</text><text fill="#000000" font-family="Arial" font-size="37.5" lengthAdjust="spacing" textLength="191.748" x="265.625" y="970.7573">role : String</text><text fill="#000000" font-family="Arial" font-size="37.5" lengthAdjust="spacing" textLength="354.3091" x="265.625" y="1026.3787">createdAt : DateTime</text><text fill="#000000" font-family="Arial" font-size="37.5" lengthAdjust="spacing" textLength="364.7827" x="265.625" y="1082">updatedAt : DateTime</text></g><!--class pair--><g class="entity" data-entity="pair" data-source-line="37" data-uid="ent0005" id="entity_pair"><rect fill="#F1F1F1" height="421.8567" rx="7.8125" ry="7.8125" style="stroke:#181818;stroke-width:1.5625;" width="414.7827" x="765.625" y="659.0313"/><ellipse cx="920.9229" cy="705.9063" fill="#ADD1B2" rx="31.25" ry="31.25" style="stroke:#181818;stroke-width:3.125;"/><path d="M930.0903,719.9688 L913.0615,719.9688 L913.0615,692.6311 L930.0903,692.6311 L930.0903,697.3918 L918.4631,697.3918 L918.4631,703.2878 L928.9917,703.2878 L928.9917,708.0486 L918.4631,708.0486 L918.4631,715.208 L930.0903,715.208 Z " fill="#000000"/><text fill="#000000" font-family="Arial" font-size="37.5" lengthAdjust="spacing" textLength="66.687" x="986.5479" y="719.5201">Pair</text><line style="stroke:#181818;stroke-width:1.5625;" x1="768.75" x2="1177.2827" y1="752.7813" y2="752.7813"/><ellipse cx="800" cy="797.7794" fill="none" rx="9.375" ry="9.375" style="stroke:#038048;stroke-width:3.125;"/><text fill="#000000" font-family="Arial" font-size="37.5" lengthAdjust="spacing" textLength="254.2603" x="831.25" y="806.7058">id : UUID &#171;PK&#187;</text><line style="stroke:#181818;stroke-width:3.125;" x1="768.75" x2="1177.2827" y1="833.4026" y2="833.4026"/><text fill="#000000" font-family="Arial" font-size="37.5" lengthAdjust="spacing" textLength="223.0225" x="790.625" y="887.3271">name : String</text><text fill="#000000" font-family="Arial" font-size="37.5" lengthAdjust="spacing" textLength="337.6099" x="790.625" y="942.9485">teamId : UUID &#171;FK&#187;</text><text fill="#000000" font-family="Arial" font-size="37.5" lengthAdjust="spacing" textLength="354.3091" x="790.625" y="998.5698">createdAt : DateTime</text><text fill="#000000" font-family="Arial" font-size="37.5" lengthAdjust="spacing" textLength="364.7827" x="790.625" y="1054.1912">updatedAt : DateTime</text></g><!--class userPair--><g class="entity" data-entity="userPair" data-source-line="46" data-uid="ent0006" id="entity_userPair"><rect fill="#F1F1F1" height="421.8567" rx="7.8125" ry="7.8125" style="stroke:#181818;stroke-width:1.5625;" width="414.7827" x="315.625" y="1296.2188"/><ellipse cx="432.5769" cy="1343.0938" fill="#ADD1B2" rx="31.25" ry="31.25" style="stroke:#181818;stroke-width:3.125;"/><path d="M441.7444,1357.1563 L424.7156,1357.1563 L424.7156,1329.8186 L441.7444,1329.8186 L441.7444,1334.5793 L430.1172,1334.5793 L430.1172,1340.4753 L440.6458,1340.4753 L440.6458,1345.2361 L430.1172,1345.2361 L430.1172,1352.3955 L441.7444,1352.3955 Z " fill="#000000"/><text fill="#000000" font-family="Arial" font-size="37.5" lengthAdjust="spacing" textLength="145.8618" x="495.719" y="1356.7076">UserPair</text><line style="stroke:#181818;stroke-width:1.5625;" x1="318.75" x2="727.2827" y1="1389.9688" y2="1389.9688"/><ellipse cx="350" cy="1434.9669" fill="none" rx="9.375" ry="9.375" style="stroke:#038048;stroke-width:3.125;"/><text fill="#000000" font-family="Arial" font-size="37.5" lengthAdjust="spacing" textLength="254.2603" x="381.25" y="1443.8933">id : UUID &#171;PK&#187;</text><line style="stroke:#181818;stroke-width:3.125;" x1="318.75" x2="727.2827" y1="1470.5901" y2="1470.5901"/><text fill="#000000" font-family="Arial" font-size="37.5" lengthAdjust="spacing" textLength="327.1912" x="340.625" y="1524.5146">userId : UUID &#171;FK&#187;</text><text fill="#000000" font-family="Arial" font-size="37.5" lengthAdjust="spacing" textLength="316.7725" x="340.625" y="1580.136">pairId : UUID &#171;FK&#187;</text><text fill="#000000" font-family="Arial" font-size="37.5" lengthAdjust="spacing" textLength="354.3091" x="340.625" y="1635.7573">createdAt : DateTime</text><text fill="#000000" font-family="Arial" font-size="37.5" lengthAdjust="spacing" textLength="364.7827" x="340.625" y="1691.3787">updatedAt : DateTime</text></g><!--link team to teamUser--><g class="link" data-entity-1="team" data-entity-2="teamUser" data-source-line="56" data-uid="lnk7" id="link_team_teamUser"><path codeLine="56" d="M746.7188,445.125 C704.7813,504.3125 691.395,523.2595 648.395,583.947" fill="none" id="team-to-teamUser" style="stroke:#181818;stroke-width:3.125;"/><line style="stroke:#181818;stroke-width:3.125;" x1="630.3283" x2="631.1739" y1="609.4452" y2="640.6838"/><line style="stroke:#181818;stroke-width:3.125;" x1="630.3283" x2="600.5761" y1="609.4452" y2="619.0037"/><line style="stroke:#181818;stroke-width:3.125;" x1="630.3283" x2="615.875" y1="609.4452" y2="629.8437"/><ellipse cx="641.1684" cy="594.1463" fill="none" rx="12.5" ry="12.5" style="stroke:#181818;stroke-width:3.125;"/><text fill="#000000" font-family="Arial" font-size="37.5" lengthAdjust="spacing" textLength="20.8557" x="705.6987" y="510.1876">1</text></g><!--link user to teamUser--><g class="link" data-entity-1="user" data-entity-2="teamUser" data-source-line="57" data-uid="lnk8" id="link_user_teamUser"><path codeLine="57" d="M301.8125,445.125 C322.3125,504.3125 326.3937,516.0073 347.425,576.6948" fill="none" id="user-to-teamUser" style="stroke:#181818;stroke-width:3.125;"/><line style="stroke:#181818;stroke-width:3.125;" x1="357.6576" x2="383.5601" y1="606.222" y2="623.7042"/><line style="stroke:#181818;stroke-width:3.125;" x1="357.6576" x2="348.1274" y1="606.222" y2="635.9833"/><line style="stroke:#181818;stroke-width:3.125;" x1="357.6576" x2="365.8438" y1="606.222" y2="629.8437"/><ellipse cx="351.518" cy="588.5057" fill="none" rx="12.5" ry="12.5" style="stroke:#181818;stroke-width:3.125;"/><text fill="#000000" font-family="Arial" font-size="37.5" lengthAdjust="spacing" textLength="20.8557" x="282.5193" y="510.1876">1</text></g><!--link team to pair--><g class="link" data-entity-1="team" data-entity-2="pair" data-source-line="58" data-uid="lnk9" id="link_team_pair"><path codeLine="58" d="M920.8125,445.125 C929.2813,513.6562 931.7576,533.8973 940.2576,602.366" fill="none" id="team-to-pair" style="stroke:#181818;stroke-width:3.125;"/><line style="stroke:#181818;stroke-width:3.125;" x1="944.1075" x2="965.7947" y1="633.3779" y2="655.8775"/><line style="stroke:#181818;stroke-width:3.125;" x1="944.1075" x2="928.5803" y1="633.3779" y2="660.4975"/><line style="stroke:#181818;stroke-width:3.125;" x1="944.1075" x2="947.1875" y1="633.3779" y2="658.1875"/><ellipse cx="941.7976" cy="614.7708" fill="none" rx="12.5" ry="12.5" style="stroke:#181818;stroke-width:3.125;"/><text fill="#000000" font-family="Arial" font-size="37.5" lengthAdjust="spacing" textLength="20.8557" x="896.9298" y="510.1876">1</text></g><!--link user to userPair--><g class="link" data-entity-1="user" data-entity-2="userPair" data-source-line="59" data-uid="lnk10" id="link_user_userPair"><path codeLine="59" d="M173.7813,444.7812 C136,626.0937 105.8438,892.6875 185.5313,1108.7188 C213.1563,1183.625 225.1097,1211.5363 277.2347,1271.5363" fill="none" id="user-to-userPair" style="stroke:#181818;stroke-width:3.125;"/><line style="stroke:#181818;stroke-width:3.125;" x1="297.7293" x2="328.2796" y1="1295.1272" y2="1301.7032"/><line style="stroke:#181818;stroke-width:3.125;" x1="297.7293" x2="299.9704" y1="1295.1272" y2="1326.2968"/><line style="stroke:#181818;stroke-width:3.125;" x1="297.7293" x2="314.125" y1="1295.1272" y2="1314"/><ellipse cx="285.4325" cy="1280.9727" fill="none" rx="12.5" ry="12.5" style="stroke:#181818;stroke-width:3.125;"/><text fill="#000000" font-family="Arial" font-size="37.5" lengthAdjust="spacing" textLength="20.8557" x="141.885" y="509.81">1</text></g><!--link pair to userPair--><g class="link" data-entity-1="pair" data-entity-2="userPair" data-source-line="60" data-uid="lnk11" id="link_pair_userPair"><path codeLine="60" d="M823.8125,1082.3125 C774.9375,1150.8125 753.3094,1181.1041 704.4969,1249.5728" fill="none" id="pair-to-userPair" style="stroke:#181818;stroke-width:3.125;"/><line style="stroke:#181818;stroke-width:3.125;" x1="686.3562" x2="687.1111" y1="1275.0185" y2="1306.2594"/><line style="stroke:#181818;stroke-width:3.125;" x1="686.3562" x2="656.5764" y1="1275.0185" y2="1284.4906"/><line style="stroke:#181818;stroke-width:3.125;" x1="686.3562" x2="671.8438" y1="1275.0185" y2="1295.375"/><ellipse cx="697.2406" cy="1259.7511" fill="none" rx="12.5" ry="12.5" style="stroke:#181818;stroke-width:3.125;"/><text fill="#000000" font-family="Arial" font-size="37.5" lengthAdjust="spacing" textLength="20.8557" x="782.6908" y="1147.3782">1</text></g><!--SRC=[hPFDIiD058NtynINRBgGWgqx2OL2AHH12cqUO6n66SmVoMIXHMWou2i8RaGKMl-wq8KYuikCsZw6CscRfhPIRDqCPywPSB-vavk3uMLlSFqgelx7IsVuUFVLwKejeWiHHr8CUm-V_NCK75B7mpwsmVGeR6rkPXsoZqEBLLs7xMARGDcds5gSD-WnWK8n4thODAbp04M4SY3Ydk1FWf-A-6gyHdrPVl1-WuZ3A3i2pGY8hm4E89G2sWXW0wW9ss0OjGheUdsdL99cFYyNOcDgoQZ1V5L3rurHw2ZCYIttBPzWHimoasP5gYQrYRH3pvotJr2AqYJOJb2O54jGPafEIKmIj7pgCUewsTG9BGllMIGvimPTsYmstYoXL3sjPRBgA5DVBx1zr_gFDjOn7K5wKlobZR-JhKYYEfJIXEFDQYrJTraVJ8u4lnNyNl0t4JyBtbNZeGGN_6mw6yd_fnKqIUIsqxT6oOJCsxEd5UYFavERe-H1vkrl]--></g></svg>